/* XPM */
static char *_3dc486a10b64233ca2b5a6fbaec811ft3sCSo6PEeebEXGp[] = {
/* columns rows colors chars-per-pixel */
"64 64 149 2 ",
"   c black",
".  c #010101",
"X  c #020202",
"o  c gray1",
"O  c #040404",
"+  c gray2",
"@  c #060606",
"#  c #090909",
"$  c #A53695",
"%  c #AB369E",
"&  c #A83998",
"*  c #B03BA3",
"=  c #C42AAC",
"-  c #C62CAE",
";  c #C625B3",
":  c #CA29B7",
">  c #9E4595",
",  c #D7DCBC",
"<  c #D7DCBE",
"1  c #D9DFB9",
"2  c #D9E1AE",
"3  c #D9E1B0",
"4  c #DBE3B0",
"5  c #DBE3B2",
"6  c #DAE0BA",
"7  c #DDE4B8",
"8  c #DEE5BB",
"9  c #DFE6BA",
"0  c #DAE0BC",
"q  c #DEE5BC",
"w  c #D6D9C4",
"e  c #DADFC1",
"r  c #DDE2C2",
"t  c #DEE3C3",
"y  c #DFE5C3",
"u  c #E0E4CD",
"i  c #E5EBC9",
"p  c #E5E9CE",
"a  c #F1F5DE",
"s  c #F7FCDC",
"d  c #FFC9FF",
"f  c #FFCDFF",
"g  c #FFCEFF",
"h  c #FFD2FF",
"j  c #FFDBFF",
"k  c #FFDEFF",
"l  c #FEFFE3",
"z  c #FEFFE5",
"x  c #FDFFE8",
"c  c #FFFFE8",
"v  c #FFFFEA",
"b  c #FFFFED",
"n  c #FFFFEF",
"m  c #FFEAFF",
"M  c #FFEBFF",
"N  c #FFEDFF",
"B  c #FFEEFF",
"V  c #FFEFFF",
"C  c gray95",
"Z  c gray96",
"A  c #F6F6F6",
"S  c gray97",
"D  c #F6FBF7",
"F  c #F6FDF6",
"G  c #F7FEF7",
"H  c #FCFEF1",
"J  c #FEFFF0",
"K  c #FFFFF1",
"L  c #FCFEF3",
"P  c #FEFFF3",
"I  c #FFFFF3",
"U  c #F8FAF7",
"Y  c #FAFCF7",
"T  c #FFFFF4",
"R  c #FDFEF6",
"E  c #FFFFF6",
"W  c #FBF6FA",
"Q  c #FFF0FF",
"!  c #FFF3FF",
"~  c #FAF7FE",
"^  c #FFF6FC",
"/  c #FFF4FF",
"(  c #FFF5FF",
")  c #FFF6FF",
"_  c #FFF7FF",
"`  c #F7FBFA",
"'  c #F6FFFA",
"]  c #F7FCFF",
"[  c #F8F8F8",
"{  c #F9F9F9",
"}  c #FAFAF8",
"|  c #FBFBF9",
" . c #F8F9FB",
".. c #F9F9FB",
"X. c gray98",
"o. c #FBFBFB",
"O. c #FBFDFA",
"+. c #F9FFFB",
"@. c #FAFFFB",
"#. c #FBFFFB",
"$. c #FCFFF8",
"%. c #FFFFF8",
"&. c #FEFFF9",
"*. c #FDFDFB",
"=. c #FFFDFA",
"-. c #FCFFFB",
";. c #FFFEFA",
":. c #FEFFFA",
">. c #FFFFFA",
",. c #FFFEFB",
"<. c #FFFFFB",
"1. c #FAF8FF",
"2. c #F9FAFE",
"3. c #FDFBFC",
"4. c #FCF9FF",
"5. c #FFFAFE",
"6. c #FFFAFF",
"7. c #FFFBFF",
"8. c #FBFFFC",
"9. c #FAFEFD",
"0. c #FBFFFD",
"q. c #F8FFFF",
"w. c #F9FFFF",
"e. c #FAFEFF",
"r. c #FBFEFF",
"t. c #FAFFFF",
"y. c #FBFFFF",
"u. c gray99",
"i. c #FDFDFD",
"p. c #FFFCFD",
"a. c #FFFDFD",
"s. c #FCFFFD",
"d. c #FEFEFC",
"f. c #FFFEFD",
"g. c #FEFFFD",
"h. c #FFFFFD",
"j. c #FCFCFE",
"k. c #FDFCFF",
"l. c #FFFDFE",
"z. c #FFFCFF",
"x. c #FEFDFF",
"c. c #FFFDFF",
"v. c #FDFEFF",
"b. c #FCFFFF",
"n. c #FEFEFE",
"m. c #FEFEFF",
"M. c #FFFEFF",
"N. c #FEFFFF",
"B. c white",
/* pixels */
"B.B.B.B.B.B.B.B.B.B.B.B.B.B.B.B.B.B.B.B.B.B.B.B.B.B.B.B.B.B.B.B.B.B.B.B.B.B.B.B.B.B.B.B.B.B.B.B.B.B.B.B.B.B.B.B.B.B.B.B.B.B.B.B.",
"B.B.B.B.B.B.B.B.B.B.B.B.B.B.B.B.B.B.B.B.B.B.B.B.B.B.B.B.B.B.B.B.B.B.B.B.B.B.B.B.B.B.B.B.B.B.B.B.B.B.B.B.B.B.B.B.B.B.B.B.B.B.B.B.",
"B.B.B.B.B.B.B.B.B.B.B.B.B.B.B.B.B.B.B.B.B.B.B.B.B.B.B.B.B.B.B.B.B.B.B.B.B.B.B.B.B.B.B.B.B.B.B.B.B.B.B.B.B.B.B.B.B.B.B.B.B.B.B.B.",
"B.B.B.B.B.B.B.B.B.B.B.B.B.B.B.B.B.B.B.B.B.B.B.B.B.B.B.B.B.B.B.B.B.B.B.B.B.B.B.B.B.B.B.B.B.B.B.B.B.B.B.B.B.B.B.B.B.B.B.B.B.B.B.B.",
"B.B.B.B.B.B.B.B.B.B.B.B.B.B.B.B.B.B.B.B.B.B.B.B.B.B.B.B.B.B.B.B.B.B.B.B.B.B.B.B.B.B.B.B.B.B.B.B.B.B.B.B.B.B.B.B.B.B.B.B.B.B.B.B.",
"B.B.B.B.B.B.B.B.B.B.B.B.B.B.B.B.B.B.B.B.B.B.B.B.B.B.B.B.B.B.B.B.B.B.B.B.B.B.B.B.B.B.B.B.B.B.B.B.B.B.B.B.B.B.B.B.B.B.B.B.B.B.B.B.",
"B.B.B.B.B.B.B.B.B.B.B.B.B.B.B.B.B.B.B.B.B.B.B.B.B.B.B.B.B.B.B.B.B.B.B.B.B.B.B.B.B.B.B.B.B.B.B.B.B.B.B.B.B.B.B.B.B.B.B.B.B.B.B.B.",
"B.B.B.B.B.B.B.B.B.B.B.B.B.B.B.B.B.B.B.B.B.B.B.B.B.B.B.B.B.B.B.B.B.B.B.B.B.B.B.B.B.B.B.B.B.B.B.B.B.B.B.B.B.B.B.B.B.B.B.B.B.B.B.B.",
"B.B.B.B.B.B.B.B.B.B.B.B.B.B.B.B.B.B.B.B.B.B.o.B.B.B.B.B.B.B.B.B.B.B.B.o.B.B.B.B.B.B.B.B.B.B.B.B.B.B.B.B.B.B.B.B.B.B.B.B.B.B.B.B.",
"B.B.B.B.B.B.B.B.B.B.B.B.B.B.B.B.B.o.B.B.o.B.B.  B.B.B.B.B.B.o.B.B.B.B.B.B.o.B.B.B.B.B.B.B.B.B.B.B.B.B.B.B.B.B.B.B.B.B.B.B.B.B.B.",
"B.B.B.B.B.B.B.B.B.B.B.B.B.B.B.B.o.B.B.B.B.o.B.            B.B.o.B.B.B.B.S B.B.B.B.B.B.B.B.B.B.B.B.B.B.B.B.B.B.B.B.B.B.B.B.B.B.B.",
"B.B.B.B.B.B.B.B.B.B.B.B.B.B.B.B.B.B.o.B.B.B.B.O B.B.B.B.B.  O     B.B.o.B.B.B.B.B.B.B.B.B.B.B.B.B.B.B.B.B.B.B.B.B.B.B.B.B.B.B.B.",
"B.B.B.B.B.B.B.B.B.B.B.B.B.B.B.B.B.B.B.B.o.B.B.o.  B.B.o.B.B.S B.B.O     B.S B.B.B.B.B.B.B.B.B.B.B.B.B.B.B.B.B.B.B.B.B.B.B.B.B.B.",
"B.B.B.B.B.B.B.B.B.B.B.B.B.B.B.B.B.B.S B.B.B.o.B.  B.B.B.o.B.B.B.B.o.B.    O   B.B.B.B.B.B.B.B.B.B.B.B.B.B.B.B.B.B.B.B.B.B.B.B.B.",
"B.B.B.B.B.B.B.B.B.B.B.B.B.B.B.B.B.B.B.B.o.B.B.B.  B.B.B.S B.B.B.B.B.B.B.B.B.B.B.B.B.B.B.B.B.B.B.B.B.B.B.B.B.B.B.B.B.B.B.B.B.B.B.",
"B.B.B.B.B.B.B.B.B.B.B.B.B.B.B.B.B.B.B.B.B.B.B.B.  B.B.B.B.o.B.B.B.B.B.B.B.B.B.B.B.B.B.B.B.B.B.B.B.B.B.B.B.B.B.B.B.B.B.B.B.B.B.B.",
"B.B.B.B.B.B.B.B.B.B.B.B.B.B.B.B.B.B.B.B.B.B.B.B.  B.B.B.B.B.o.B.B.B.B.B.B.B.B.B.B.B.B.B.B.B.B.B.B.B.B.B.B.B.B.B.B.B.B.B.B.B.B.B.",
"B.B.B.B.B.B.B.B.B.B.B.B.B.B.B.B.B.B.B.B.B.B.B.B.  B.o.B.B.B.B.B.B.B.B.B.B.B.B.B.B.B.B.B.B.B.B.B.B.B.B.B.B.B.B.B.B.B.B.B.B.B.B.B.",
"B.B.B.B.B.B.B.B.B.B.B.B.B.B.B.B.B.B.B.B.B.B.B.B.  B.B.o.B.B.B.B.B.B.B.B.B.B.B.B.B.B.B.B.B.B.B.B.B.B.B.B.B.B.B.B.B.B.B.B.B.B.B.B.",
"B.B.B.B.B.B.B.B.B.B.B.B.B.B.B.B.B.B.B.B.B.B.B.B.B.  B.o.B.B.o.B.B.B.B.B.B.B.B.B.B.B.B.B.B.B.B.B.B.B.B.B.B.B.B.B.B.B.B.B.B.B.B.B.",
"B.B.B.B.B.B.B.B.B.B.B.B.B.B.B.B.B.B.B.B.B.B.B.B.B.  B.B.B.B.o.B.B.B.B.B.B.B.B.B.B.B.B.B.B.B.B.B.B.B.B.B.B.B.B.B.B.B.B.B.B.B.B.B.",
"B.B.B.B.B.B.B.B.B.B.B.B.B.B.B.B.B.B.B.B.B.B.B.B.B.O B.o.B.B.o.B.B.B.B.B.B.B.B.B.B.B.B.B.B.B.B.B.B.B.B.B.B.B.B.B.B.B.B.B.B.B.B.B.",
"B.B.B.B.B.B.B.B.B.B.B.B.B.B.B.B.B.B.B.B.B.B.B.B.B.  B.B.B.o.B.B.B.B.B.B.B.B.B.B.B.B.B.B.B.B.B.B.B.B.B.B.B.B.B.B.B.B.B.B.B.B.B.B.",
"B.B.B.B.B.B.B.B.B.B.B.B.B.B.B.B.B.B.B.B.B.B.B.B.B.  o.B.B.B.o.B.B.B.B.B.B.B.B.B.B.B.B.B.B.B.B.B.B.B.B.B.B.B.B.B.B.B.B.B.B.B.B.B.",
"B.B.B.B.B.B.B.B.B.B.B.B.B.B.B.B.B.B.B.B.B.B.B.B.B.  B.B.B.B.B.B.B.B.B.B.B.B.B.B.B.B.B.B.B.B.B.B.B.B.B.B.B.B.B.B.B.B.B.B.B.B.B.B.",
"B.B.B.B.B.B.B.B.B.B.B.B.B.B.B.B.B.B.B.B.B.B.B.B.B.  B.B.B.B.B.B.B.B.B.B.B.B.B.B.B.B.B.B.B.B.B.B.B.B.B.B.B.B.B.B.B.B.B.B.B.B.B.B.",
"B.B.B.B.B.B.B.B.B.B.B.B.B.B.B.B.B.B.B.B.B.B.B.B.B.  B.B.B.B.B.B.B.B.B.B.B.B.B.B.B.B.B.B.B.B.B.B.B.B.B.B.B.B.B.B.B.B.B.B.B.B.B.B.",
"B.B.B.B.B.B.B.B.B.B.B.B.B.B.B.B.B.B.B.B.B.B.B.B.B.  B.B.B.B.B.B.B.B.B.B.B.B.B.B.B.B.B.B.B.B.B.B.B.B.B.B.B.B.B.B.B.B.B.B.B.B.B.B.",
"B.B.B.B.B.B.B.B.B.B.B.B.B.B.B.B.B.B.B.B.B.B.B.B.B.  B.B.B.B.B.B.B.B.B.B.B.B.B.B.B.B.B.B.B.B.B.B.B.B.B.B.B.B.B.B.B.B.B.B.B.B.B.B.",
"B.B.B.B.B.B.B.B.B.B.B.B.B.B.B.B.B.B.B.B.B.B.B.B.B.  B.B.B.B.B.B.B.B.B.B.B.B.B.B.B.B.B.B.B.B.B.B.B.B.B.B.B.B.B.B.B.B.B.B.B.B.B.B.",
"B.B.B.B.B.B.B.B.B.B.B.B.B.B.B.B.B.B.B.B.B.B.B.B.B.  B.B.B.B.B.B.B.B.B.B.B.B.B.B.B.B.B.B.B.B.B.B.B.B.B.B.B.B.B.B.B.B.B.B.B.B.B.B.",
"B.B.B.B.B.B.B.B.B.B.B.B.B.B.B.B.B.B.B.B.B.B.B.B.B.  B.B.B.B.B.B.B.B.B.B.B.B.B.B.B.B.B.B.B.B.B.B.B.B.B.B.B.B.B.B.B.B.B.B.B.B.B.B.",
"B.B.B.B.B.B.B.B.B.B.B.B.B.B.B.B.B.B.B.B.B.B.B.B.o.  B.B.B.B.B.B.B.B.B.B.B.B.B.B.B.B.B.B.B.B.B.B.B.B.B.B.B.B.B.B.B.B.B.B.B.B.B.B.",
"B.B.B.B.B.B.B.B.B.B.B.B.B.B.B.B.B.B.B.B.B.B.B.B.o.O B.B.B.C B.B.B.B.B.B.B.B.B.B.B.B.B.B.B.B.B.B.B.B.B.B.B.B.B.B.B.B.B.B.B.B.B.B.",
"B.B.B.B.B.B.B.B.B.B.B.B.B.B.B.B.B.B.B.B.B.B.B.B.B.  B.B.B.B.o.B.B.B.B.B.B.B.B.B.B.B.B.B.B.B.B.B.B.B.B.B.B.B.B.B.B.B.B.B.B.B.B.B.",
"B.B.B.B.B.B.B.B.B.B.B.B.B.B.B.B.B.B.B.B.B.B.B.B.    O   O B.B.o.B.B.B.B.B.B.B.B.B.B.B.B.B.B.B.B.B.B.B.B.B.B.B.B.B.B.B.B.B.B.B.B.",
"B.B.B.B.B.B.B.B.B.B.B.B.B.B.B.B.B.B.B.B.B.B.B.B.B.  B.o.B.B.B.B.B.B.B.B.B.B.B.B.B.B.B.B.B.B.B.B.B.B.B.B.B.B.B.B.B.B.B.B.B.B.B.B.",
"B.B.B.B.B.B.B.B.B.B.B.B.B.B.B.B.B.B.B.B.B.B.B.B.B.  B.B.o.o.B.B.B.B.B.B.B.B.B.B.B.B.B.B.B.B.B.B.B.B.B.B.B.B.B.B.B.B.B.B.B.B.B.B.",
"B.B.B.B.B.B.B.B.B.B.B.B.B.B.B.B.B.B.B.B.B.B.B.B.B.  B.B.B.B.B.B.B.B.B.B.B.B.B.B.B.B.B.B.B.B.B.B.B.B.B.B.B.B.B.B.B.B.B.B.B.B.B.B.",
"B.B.B.B.B.B.B.B.B.B.B.B.B.B.B.B.B.B.B.B.B.B.B.B.B.  B.B.B.B.o.B.B.B.B.B.B.B.B.B.B.B.B.B.B.B.B.B.B.B.B.B.B.B.B.B.B.B.B.B.B.B.B.B.",
"B.B.B.B.B.B.B.B.B.B.B.B.B.B.B.B.B.B.B.B.B.B.B.B.B.  B.B.o.B.B.B.B.B.B.B.B.B.B.B.B.B.B.B.B.B.B.B.B.B.B.B.B.B.B.B.B.B.B.B.B.B.B.B.",
"B.B.B.B.B.B.B.B.B.B.B.B.B.B.B.B.B.B.B.B.B.B.B.B.  B.B.S B.B.B.B.B.B.B.B.B.B.B.B.B.B.B.B.B.B.B.B.B.B.B.B.B.B.B.B.B.B.B.B.B.B.B.B.",
"B.B.B.B.B.B.B.B.B.B.B.B.B.B.B.B.B.B.B.B.B.B.B.B.  o.B.B.B.B.B.B.B.B.B.B.B.B.B.B.B.B.B.B.B.B.B.B.B.B.B.B.B.B.B.B.B.B.B.B.B.B.B.B.",
"B.B.B.B.B.B.B.B.B.B.B.B.B.B.B.B.B.B.B.B.B.B.B.B.  B.B.B.B.B.B.B.B.B.B.B.B.B.B.B.B.B.B.B.B.B.B.B.B.B.B.B.B.B.B.B.B.B.B.B.B.B.B.B.",
"B.B.B.B.B.B.B.B.B.B.B.B.B.B.B.B.B.B.B.B.B.B.B.B.  B.o.B.B.B.o.B.B.B.B.B.B.B.B.B.B.B.B.B.B.B.B.B.B.B.B.B.B.B.B.B.B.B.B.B.B.B.B.B.",
"B.B.B.B.B.B.B.B.B.B.B.B.B.B.B.B.B.B.B.B.B.B.B.B.  B.B.B.B.C B.B.B.B.B.B.B.B.B.B.B.B.B.B.B.B.B.B.B.B.B.B.B.B.B.B.B.B.B.B.B.B.B.B.",
"B.B.B.B.B.B.B.B.B.B.B.B.B.B.B.B.B.B.B.B.B.B.B.B.  B.B.B.o.B.B.o.B.B.B.B.B.B.B.B.B.B.B.B.B.B.B.B.B.B.B.B.B.B.B.B.B.B.B.B.B.B.B.B.",
"B.B.B.B.B.B.B.B.B.B.B.B.B.B.B.B.B.B.B.B.B.B.B.B.  B.B.o.B.B.B.B.B.B.B.B.B.B.B.B.B.B.B.B.B.B.B.B.B.B.B.>.>.>.B.B.B.B.B.B.B.B.B.B.",
">.B.y.] B.>.B.@.@.B.Y y.y.y.B.>.B.B.B.B.B.B.B.B.  B.B.B.B.B.B.B.B.B.B.B.B.B.B.B.B.B.B.B.B.B.B.B.B.B.>.I I I >.B.B.B.>.>.>.B.B.B.",
">.B.B.y.G B.B Q Q B B.G y.y.B.>.B.B.B.B.B.B.B.B.  B.B.B.B.B.B.B.B.B.B.B.B.B.B.B.B.B.B.B.B.B.B.B.2.B.T a p u I B.B.B.>.>.>.B.B.B.",
"6.B.6.2.@._ > f d j _ @.B.B.6.B.B.B.B.B.B.B.B.B.  B.B.B.B.B.B.B.B.B.B.B.B.B.B.B.B.B.B.B.B.B.B.B.B.B.n r 0 , n >.B.B.B.>.>.B.B.B.",
"B.6.B.B.' B * ; : % Q @.B.B.B.B.B.B.B.B.B.B.B.B.  B.B.B.B.B.B.B.B.B.B.B.B.B.B.B.B.B.B.B.B.B.B.B.B.>.x 1 7 q x I B.B.B.>.>.>.B.B.",
"W B.~ B.y.Q $ = - & Q @.B.B.B.B.B.B.B.B.B.B.B.B.  B.B.B.B.B.B.B.B.B.B.B.B.B.B.B.B.B.B.B.B.B.B.B.o.T z 7 4 4 s I >.B.B.B.>.>.B.B.",
"B.B.B.o.U _ k h f k _ B.B.B.B.B.B.B.B.B.B.B.B.B.  B.B.B.B.B.B.B.B.B.B.B.B.B.B.B.B.B.B.B.B.B.B.B.>.T l 7 2 4 i n >.B.B.B.>.>.B.B.",
"D B.o.B.o._ Q m B m 6.o.B.B.B.B.B.B.B.B.B.B.B.B.  B.B.B.B.B.B.B.B.B.B.B.B.B.B.B.B.B.B.B.B.B.B.B.B.I x 6 7 7 e I >.B.B.B.>.>.B.B.",
"B.B.` B.B.B.B.B.6.B.o.B.B.y.B.y.B.B.B.B.B.B.B.B.  B.B.B.B.B.B.B.B.B.B.B.B.B.B.B.B.B.B.B.B.B.B.B.B.T n , y r w T >.B.B.>.>.>.B.B.",
"B.B.B.B.B.B.y.y.y.y.y.y.B.B.B.B.B.B.B.B.B.B.B.B.  o.B.B.B.B.B.o.B.B.o.B.B.B.B.B.B.B.B.B.B.B.B.B.B.>.T I I I T >.>.B.>.>.>.B.B.B.",
"B.B.B.B.B.y.y.y.B.y.y.y.B.B.B.B.B.B.B.B.B.B.B.B.  o.B.o.B.o.B.B.o.B.B.S B.B.B.B.B.B.B.B.B.B.B.B.B.B.>.>.>.>.B.B.B.>.>.>.>.B.B.B.",
"B.B.B.B.B.B.B.B.B.B.B.y.B.B.B.B.B.B.B.B.B.B.B.B.                      #       o.B.B.B.B.B.B.B.B.B.B.B.B.B.B.B.B.B.>.>.>.>.B.B.B.",
"B.B.B.B.B.>.B.B.B.B.>.B.B.B.B.B.B.B.B.B.B.B.B.B.B.B.B.o.B.B.B.B.o.B.B.B.B.o.B.B.B.B.B.B.B.B.B.B.B.B.B.B.B.B.B.B.B.B.>.>.B.B.B.B.",
">.B.B.B.>.>.>.>.>.>.>.>.B.B.B.B.B.B.B.B.B.B.B.B.B.B.B.B.B.B.B.B.B.o.B.o.o.B.B.B.B.B.B.B.B.B.B.B.B.B.B.B.B.B.B.B.B.B.B.B.B.B.B.B.",
"B.B.B.B.B.>.>.>.>.>.>.B.B.B.B.B.B.B.B.B.B.B.B.B.B.B.B.o.S B.o.B.B.B.B.B.B.B.o.B.B.B.B.B.B.B.B.B.B.B.B.B.B.B.B.B.B.B.B.B.B.B.B.B.",
"y.B.>.B.B.B.B.B.B.B.B.B.B.>.B.B.B.B.B.B.B.B.B.B.B.B.B.B.B.o.B.B.B.o.o.B.B.B.B.B.B.B.B.B.B.B.B.B.B.B.B.>.>.>.>.>.B.B.B.B.B.B.B.>.",
"y.y.>.>.B.B.B.B.B.B.B.B.>.>.y.y.B.B.B.B.B.B.B.B.B.o.B.o.B.B.o.B.o.B.B.B.B.B.B.B.B.B.B.B.B.B.B.B.B.B.B.>.>.T T >.B.B.B.B.B.B.>.>."
};
