/* XPM */
static char *_0358ae956f145e5ed2114723a928656Gp9TueMiuGDthD9V[] = {
/* columns rows colors chars-per-pixel */
"64 64 197 2 ",
"   c black",
".  c #010000",
"X  c #000100",
"o  c #010101",
"O  c #000300",
"+  c #030301",
"@  c #020202",
"#  c gray1",
"$  c #040000",
"%  c #000400",
"&  c #040500",
"*  c #000007",
"=  c #040404",
"-  c gray2",
";  c #060606",
":  c #05040A",
">  c gray3",
",  c #0B0B0B",
"<  c #A83B96",
"1  c #AA35A0",
"2  c #AB34AA",
"3  c #B739A7",
"4  c #BD24B2",
"5  c #C32CAF",
"6  c #C027B5",
"7  c #C32EB0",
"8  c #C428B9",
"9  c #DC1EC8",
"0  c #D5DEA9",
"q  c #D8DFB3",
"w  c #D6DBBD",
"e  c #D9E2AB",
"r  c #DDE6AD",
"t  c #DDE5B4",
"y  c #DEE6B7",
"u  c #DFE6BA",
"i  c #DCE2BC",
"p  c #DCE2BE",
"a  c #E2EAB7",
"s  c #D4D7C4",
"d  c #DADDCA",
"f  c #D9DBCE",
"g  c #DBDECD",
"h  c #DDDFD1",
"j  c #DEE2C9",
"k  c #DEE1CC",
"l  c #E2E7C7",
"z  c #E0E4CB",
"x  c #E3E8CA",
"c  c #E1E3D8",
"v  c #E9EBDE",
"b  c #FFD0FF",
"n  c #FFD5FF",
"m  c #FFDCFF",
"M  c #FFDDFF",
"N  c #F8FCE3",
"B  c #FCFFE5",
"V  c #F5F7E9",
"C  c #FDFFEA",
"Z  c #FDFFEB",
"A  c #FFFFEA",
"S  c #FEFFEB",
"D  c #FFFFEF",
"F  c #FFE0FF",
"G  c #FFE6FF",
"H  c #FFE9FF",
"J  c #FFEDFF",
"K  c #FFEEFF",
"L  c #FFEFFF",
"P  c #F3F3F3",
"I  c #F6F7F2",
"U  c #F4F4F4",
"Y  c gray96",
"T  c #F7F7F5",
"R  c #F6F6F6",
"E  c gray97",
"W  c #F8F4F5",
"Q  c #F7F8F3",
"!  c #F5FAF6",
"~  c #F4FFF7",
"^  c #F9FBF0",
"/  c #F8F9F3",
"(  c #F9FAF2",
")  c #FAFDF2",
"_  c #FFFFF1",
"`  c #FDFFF2",
"'  c #FCFEF3",
"]  c #FFFEF2",
"[  c #FFFFF3",
"{  c #F9FAF4",
"}  c #FAFBF5",
"|  c #F8F8F6",
" . c #F9F9F7",
".. c #FCFDF5",
"X. c #FDFFF4",
"o. c #FEFFF4",
"O. c #FFFFF4",
"+. c #FEFFF5",
"@. c #FCFDF7",
"#. c #FDFEF6",
"$. c #FFFFF6",
"%. c #F7F6FC",
"&. c #F7F6FE",
"*. c #FFF4FB",
"=. c #FFF0FC",
"-. c #FFF0FF",
";. c #FFF2FF",
":. c #FFF3FF",
">. c #F8F7FC",
",. c #FFF5FC",
"<. c #FFF7FD",
"1. c #FFF4FF",
"2. c #FFF5FF",
"3. c #FFF6FF",
"4. c #FFF7FF",
"5. c #F7FBFC",
"6. c #F6FBFE",
"7. c #F5FFFD",
"8. c #F7FFFD",
"9. c #F6FFFF",
"0. c #F7FFFF",
"q. c #F8F8F8",
"w. c #F9F9F9",
"e. c #FAFAF8",
"r. c #F9F9FB",
"t. c gray98",
"y. c #FBFBFB",
"u. c #F9FFF8",
"i. c #FAFFF8",
"p. c #F8FCFB",
"a. c #F8FEFA",
"s. c #F9FEFA",
"d. c #F8FFFB",
"f. c #F9FFFB",
"g. c #FCFDF8",
"h. c #FFFCF8",
"j. c #FDFEF8",
"k. c #FCFFF8",
"l. c #FDFEF9",
"z. c #FEFFF8",
"x. c #FFFFF8",
"c. c #FFFEF9",
"v. c #FCFCFA",
"b. c #FDFDFB",
"n. c #FCFFFA",
"m. c #FCFFFB",
"M. c #FEFFFA",
"N. c #FFFFFA",
"B. c #FFFEFB",
"V. c #FEFFFB",
"C. c #FFFFFB",
"Z. c #F9F8FD",
"A. c #FAFAFC",
"S. c #FBFBFD",
"D. c #F9F8FF",
"F. c #FAF9FE",
"G. c #FBFAFF",
"H. c #FCF9FF",
"J. c #FFF9FF",
"K. c #FCFBFF",
"L. c #FDFBFF",
"P. c #FFFAFE",
"I. c #FFFAFF",
"U. c #FEFBFF",
"Y. c #FFFBFF",
"T. c #F9FFFD",
"R. c #FBFFFD",
"E. c #F9FEFF",
"W. c #F8FFFF",
"Q. c #F9FFFF",
"!. c #FAFFFF",
"~. c #FBFFFF",
"^. c gray99",
"/. c #FDFDFD",
"(. c #FFFCFD",
"). c #FFFDFD",
"_. c #FCFEFD",
"`. c #FCFFFD",
"'. c #FEFEFC",
"]. c #FFFEFD",
"[. c #FEFFFD",
"{. c #FFFFFD",
"}. c #FCFCFE",
"|. c #FDFCFF",
" X c #FDFDFF",
".X c #FFFDFE",
"XX c #FFFCFF",
"oX c #FFFDFF",
"OX c #FDFFFE",
"+X c #FCFEFF",
"@X c #FDFEFF",
"#X c #FCFFFF",
"$X c #FEFEFE",
"%X c #FEFEFF",
"&X c #FFFEFF",
"*X c #FEFFFF",
"=X c white",
/* pixels */
"=X=X=X=X=X=X=X=X=X=X=X=X=X=X=X=X=X=X=X=X=X=X=X=X=X=X=X=X=X=X=X=X=X=X=X=X=X=X=X=X=X=X=X=X=X=X=X=X=X=X=X=X=X=X=X=X=X=X=X=X=X=X=X=X",
"=X=X=X=X=X=X=X=X=X=X=X=X=X=X=X=X=X=X=X=X=X=X=X=X=X=X=X=X=X=X=X=X=X=X=X=X=X=X=X=X=X=X=X=X=X=X=X=X=X=X=X=X=X=X=X=X=X=X=X=X=X=X=X=X",
"=X=X=X=X=X=X=X=X=X=X=X=X=X=X=X=X=X=X=X=X=X=X=X=X=X=X=X=X=X=X=X=X=X=X=X=X=X=X=X=X=X=X=X=X=X=X=X=X=X=X=X=X=X=X=X=X=X=X=X=X=X=X=X=X",
"=X=X=X=X=X=X=X=X=X=X=X=X=X=X=X=X=X=X=X=X=X=X=X=X=X=X=X=X=X=X=X=X=X=X=X=X=X=X=X=X=X=X=X=X=X=X=X=X=X=X=X=X=X=X=X=X=X=X=X=X=X=X=X=X",
"=X=X=X=X=X=X=X=X=X=X=X=X=X=X=X=X=X=X=X=X=X=X=X=X=X=X=X=X=X=X=X=X=X=X=X=X=X=X=X=X=X=X=X=X=X=X=X=X=X=X=X=X=X=X=X=X=X=X=X=X=X=X=X=X",
"=X=X=X=X=X=X=X=X=X=X=X=X=X=X=X=X=X=X=X=X=X=X=X=X=X=X=X=X=X=X=X=X=X=X=X=X=X=X=X=X=X=X=X=X=X=X=X=X=X=X=X=X=X=X=X=X=X=X=X=X=X=X=X=X",
"=X=X=X=X=X=X=X=X=X=X=X=X=X=X=X=X=X=X=X=X=X=X=X=X=X=X=X=X=X=X=X=X=X=X=X=X=X=X=X=X=X=X=X=X=X=X=X=X=X=X=X=X=X=X=X=X=X=X=X=X=X=X=X=X",
"=X=X=X=X=X=X=X=X=X=X=X=X=X=X=X=X=X=X=X=X=X=X=X=X=X=X=X=X=X=X=X=X=X=X=X=X=X=X=X=X=X=X=X=X=X=X=X=X=X=X=X=X=X=X=X=X=X=X=X=X=X=X=X=X",
"=X=X=X=X=X=X=X=X=X=X=X=X=X=X=X=X=X=X=X=X=X=X=X=X=X=X=X=X=X=X=X=X=X=X=X=X=X=X=X=X=Xy.=Xy.=X=Xy.=X=X=X=X=X=X=X=X=X=X=X=X=X=X=X=X=X",
"=X=X=X=X=X=X=X=X=X=X=X=X=X=X=X=X=X=X=X=X=X=X=X=X=X=X=X=X=X=X=X=X=X=X=X=X=X=X=X=X=X=X=X=X=Xy.=X=X=X=X=X=X=X=X=X=X=X=X=X=X=X=X=X=X",
"=X=X=X=X=X=X=X=X=X=X=X=X=X=X=X=X=X=X=X=X=X=X=X=X=X=X=X=X=X=X=X=X=X=X=X=X=X=X=X=X=X=X=Xy.y.=Xy.=X=X=X=X=X=X=X=X=X=X=X=X=X=X=X=X=X",
"=X=X=X=X=X=X=X=X=X=X=X=X=X=X=X=X=X=X=X=X=X=X=X=X=X=X=X=X=X=X=X=X=X=X=X=X=X=X=X=X=X=X=X=X=X=X=X=X=X=X=X=X=X=X=X=X=X=X=X=X=X=X=X=X",
"=X=X=X=X=X=X=X=X=X=X=X=X=X=X=X=X=X=X=X=X=X=X=X=X=X=X=X=X=X=X=X=X=X=X=X=X=X=X=X=X=X=X=Xy.=X=X=X=X=X=X=X=X=X=X=X=X=X=X=X=X=X=X=X=X",
"=X=X=X=X=X=X=X=X=X=X=X=X=X=X=X=X=X=X=X=X=X=X=X=X=X=X=X=X=X=X=X=X=X=X=X=X=X=X=X=X=Xy.y.=X=X=X=Xy.=X=X=X=X=X=X=X=X=X=X=X=X=X=X=X=X",
"=X=X=X=X=X=X=X=X=X=X=X=X=X=X=X=X=X=X=X=X=X=X=X=X=X=X=X=X=X=X=X=X=X=X=X=X=X=X=X=X  =X=Xy.=Xy.=X=X=X=X=X=X=X=X=X=X=X=X=X=X=X=X=X=X",
"=X=X=X=X=X=X=X=X=X=X=X=X=X=X=X=X=X=X=X=X=X=X=X=X=X=X=X=X=X=X=X=X=X=X=X=X=X=X=X=X  y.=X=Xy.=X=Xy.=X=X=X=X=X=X=X=X=X=X=X=X=X=X=X=X",
"=X=X=X=X=X=X=X=X=X=X=X=X=X=X=X=X=X=X=X=X=X=X=X=X    =X=X=X=X=X=X=X=X=X=X=X=X=X  =X=X=X=X=X=X=X=X=X=X=X=X=X=X=X=X=X=X=X=X=X=X=X=X",
"=X=X=X=X=X=X=X=X=X=X=X=X=X=X=X=Xy.=X=X=Xy.=X=X=X    =X=X=X=Xy.=X=X=X=X=X=Xy.=X  =X=X=X=X=X=X=X=X=X=X=X=X=X=X=X=X=X=X=X=X=X=X=X=X",
"=X=X=X=X=X=X=X=X=X=X=X=X=X=X=X=X=X=Xy.=X=X=Xy.=X    =X=Xy.=X=X=X=X=XY =X=X=X=X  =X=X=X=X=X=X=X=X=X=X=X=X=X=X=X=X=X=X=X=X=X=X=X=X",
"=X=X=X=X=X=X=X=X=X=X=X=X=X=X=X=X=Xy.=X=X=X=X=X=X    y.y.=X=X=Xy.=Xy.=X=X=X=X=X  =X=X=X=X=X=X=X=X=X=X=X=X=X=X=X=X=X=X=X=X=X=X=X=X",
"=X=X=X=X=X=X=X=X=X=X=X=X=X=X=X=X=X=X=X=X=X=X=X  =X  =X=Xy.=X=X=X=X=X=X=X=X=X=X  =X=X=X=X=X=X=X=X=X=X=X=X=X=X=X=X=X=X=X=X=X=X=X=X",
"=X=X=X=X=X=X=X=X=X=X=X=X=X=X=X=X=X=XY =X=X=X=X  =X  y.=X=Xy.=Xy.=XY =X=X=X=X=X= =X=X=X=X=X=X=X=X=X=X=X=X=X=X=X=X=X=X=X=X=X=X=X=X",
"=X=X=X=X=X=X=X=X=X=X=X=X=X=X=X=X=XP =X=XY =X=X  =X  =X=X=X=X=X=X=X=X=Xy.=X=X  y.=X=X=X=X=X=X=X=X=X=X=X=X=X=X=X=X=X=X=X=X=X=X=X=X",
"=X=X=X=X=X=X=X=X=X=X=X=X=X=X=X=X=X=X=Xy.=X=X  =X=X  =X=X=X=X=X=X=X=Xy.=X=X=X  =X=X=X=X=X=X=X=X=X=X=X=X=X=X=X=X=X=X=X=X=X=X=X=X=X",
"=X=X=X=X=X=X=X=X=X=X=X=X=X=X=X=X=X=X=X=X=X=X  =X=X= y.=X=Xy.=X=X=X=X=X=X=X=X  =X=X=X=X=X=X=X=X=X=X=X=X=X=X=X=X=X=X=X=X=X=X=X=X=X",
"=X=X=X=X=X=X=X=X=X=X=X=X=X=X=X=Xy.=X=X=X=X    =X=X  =XY =X=Xy.=X=X=X=X=X=X=X  =X=X=X=X=X=X=X=X=X=X=X=X=X=X=X=X=X=X=X=X=X=X=X=X=X",
"=X=X=X=X=X=X=X=X=X=X=X=X=X=X=X=X=X=X=Xy.=X> y.=X=X=X  =Xy.y.=X=X=X=X=X=XY y.> =X=X=X=X=X=X=X=X=X=X=X=X=X=X=X=X=X=X=X=X=X=X=X=X=X",
"=X=X=X=X=X=X=X=X=X=X=X=X=X=X=X=X=X=X=Xy.y.  =X=X=XY   y.=X=X=Xy.=X=X=XY =X=X  =X=X=X=X=X=X=X=X=X=X=X=X=X=X=X=X=X=X=X=X=X=X=X=X=X",
"=X=X=X=X=X=X=X=X=X=X=X=X=X=X=X=X=XP =X=X=   =X=X=X=X  =X=Xy.y.=X=X=X=X=X=X  =X=X=X=X=X=X=X=X=X=X=X=X=X=X=X=X=X=X=X=X=X=X=X=X=X=X",
"=X=X=X=X=X=X=X=X=X=X=X=X=X=X=X=X=X=X=Xy.  =Xy.=Xy.=X  =X=X=X=Xy.=X=Xy.y.=X  =X=X=X=X=X=X=X=X=X=X=X=X=X=X=X=X=X=X=X=X=X=X=X=X=X=X",
"=X=X=X=X=X=X=X=X=X=X=X=X=X=X=X=X=X=X=X=X= Y =Xy.=Xy.y.  =Xy.=X=X=X=X=X=Xy.  y.=X=X=X=X=X=X=X=X=X=X=X=X=X=X=X=X=X=X=X=X=X=X=X=X=X",
"=X=X=X=X=X=X=X=X=X=X=X=X=X=X=X=X=X=X=X  y.=X=X=X=X=X=X  Y =Xy.=X=X=X=Xy.  =Xy.=X=X=X=X=X=X=X=X=X=X=X=X=X=X=X=X=X=X=X=X=X=X=X=X=X",
"=X=X=X=X=X=X=X=X=Xy.=X=Xy.=Xy.=X=X=X  =X=X=X=X=X=X=X=X  =X=X=X=X=X=X=X=X  =X=X=X=X=X=X=X=X=X=X=X=X=X=X=X=X=X=X=X=X=X=X=X=X=X=X=X",
"=X=X=X=X=X=X=X=X=X=Xy.=X=X=X=X=X=X=X  y.y.=X=X=Xy.=X=X  y.=X=X=X=X=X=X=X  =X=Xy.=X=X=X=X=X=X=X=X=X=X=X=X=X=X=X=X=X=X=X=X=X=X=X=X",
"=X=X=X=X=X=X=X=X=Xy.=Xy.y.=X=X=X=X  =X=X=Xy.y.=X=XY =X  =X=Xy.=X=X=X=X=X  =X=X=X=X=X=X=X=X=X=X=X=X=X=X=X=X=X=X=X=X=X=X=X=X=X=X=X",
"=X=X=X=X=X=X=X=X=X=X=X=X=X=X=X=X=X  =X=Xy.=X=X=X=X=Xy.y.  =Xy.=X=X=X=X=X  =X=Xy.=X=X=X=X=X=X=X=X=X=X=X=X=X=X=X=X=X=X=X=X=X=X=X=X",
"=X=X=X=X=X=X=X=X=X=X=X=Xy.=X=X=X  =X=X=X=Xy.=X=X=X=X=X=X  =X=X=X=X=X=X=X  =X=X=X=X=X=X=X=X=X=X=X=X=X=X=X=X=X=X=X=X=X=X=X=X=X=X=X",
"=X=X=X=X=X=X=X=Xy.=X=X=X=Xy.y.=X= y.=X=XY =X=X=X=X=X=X=X  =X=X=X=X=X=X=X  =X=X=X=X=X=X=X=X=X=X=X=X=X=X=X=X=X=X=X=X=X=X=X=X=X=X=X",
"=X=X=X=X=X=X=X=X=X=Xy.=Xy.=X=X  =X=X=X=X=X=Xy.=Xy.=X=X=X  =X=X=X=X=X=X= y.=X=X=X=X=X=X=X=X=X=X=X=X=X=X=X=X=X=X=X=X=X=X=X=X=X=X=X",
"=X=X=X=X=X=X=X=Xy.=X=Xy.=X=Xy.  =X=X=X=X=X=X=X=X=Xy.=X=X=X  =X=X=X=X=X  =X=X=X=X=X=X=X=X=X=X=X=X=X=X=X=X=X=X=X=X=X=X=X=X=X=X=X=X",
"=X=X=X=X=X=X=X=X=X=X=X=X=X=X  =X=X=X=X=X=X=X=X=X=X=Xy.=X=X  =X=X=X=Xy.  =X=X=X=X=X=X=X=X=X=X=X=X=X=X=X=X=X=X=X=X=X=X=X=X=X=X=X=X",
"=X=X=X=X=X=X=X=X=X=X=X=X=X=X  =X=X=X=X=X=X=X=X=X=X=X=X=Xy.y.= =X=X=X=X  =X=X=X=X=X=X=X=X=X=X=X=X=X=X=X=X=X=X=X=X=X=X=X=X=X=X=X=X",
"=X=X=X=X=X=X=X=X=X=X=X=Xy.  =X=X=X=X=X=X=X=X=X=X=X=Xy.=X=X=X  =X=X=X=X  =X=X=X=X=X=X=X=X=X=X=X=X=X=X=X=X=X=X=X=X=X=X=X=X=X=X=X=X",
"=X=X=X=X=X=X=X=X=X=X=X=X=X= =X=X=X=X=X=X=X=X=X=X=Xy.=X=Xy.=X  =X=X=X=X  =Xy.=X=X=X=X=X=X=X=X=X=X=X=X=X=X=X=X=X=X=X=X=X=X=X=X=X=X",
"=X=X=X=X=X=X=X=X=X=X=X=X> y.=X=X=X=X=X=X=X=X=X=X=X=Xy.y.=Xy.  =Xy.=X  =X=X=X=X=X=X=X=X=X=X=X=X=X=X=X=X=X=X=X=X=X=X=X=X=X=X=X=X=X",
"=X=X=X=X=X=X=X=X=X=X=X=X  y.=X=X=X=X=X=X=X=X=X=X=X=X=X=Xy.=X= y.=X=X  =X=X=X=X=X=X=X=X=X=X=X=X=X=X=X=X=X=X=X=X=X=X=X=X=X=X=X=X=X",
"=X=X=X=X=X=X=X=X=X=X=XY = =Xy.=X=X=X=X=X=X=X=X=X=Xy.=X=X=Xy.=X  =X=X  =X=X=X=X=X=X=X=X=X=X=X=X=X=X=X=X=X=X=X=X=X=X=X=X=X=X=X=X=X",
"=X=X=X=X=X=X=X=X=X=X=X=X  =X=X=X=X=X=X=X=X=X=X=X=X=X=X=Xy.=X=X  =X=X  =Xn.=X=Xn.n.n.n.n.n.=X=X=Xn.n.=X=X=X=X=X=X=X=X=X=X=X=X=X=X",
"n.n.s.=X=XI.~.~.=Xn.=X=X% ~.~.=X=X=X=X=X=X=X=X=X=X=X=X=X=Xy.=X  =XQ & n.$.n.n.$.$.$.$.$.$.n.^ n.$.$.n.n.=X=X=X=X=X=X=X=X=X=X=X=X",
"s.n.s.I.-.K G 2.I.n.Y =X  ~.5.=X=X=X=X=X=X=X=X=X=X=X=X=X=X=X=X=X  = =X=Xn.{ n.^ h g d k C C C C D ] $.$.n.=X=X=X=X=X=X=X=X=X=X=X",
"=XI.$.2.F b n m 2.=X=X=X$ n.n.! =X=X=X=X=X=X=X=X=X=X=X=X=X=Xy.A.* * =X&.=X=X=Xn.$.C x p q a e t j V $.n.n.=X=XA.=X=X=X=X=X=X=X=X",
"I.=X] K 1 6 7 < -.n.=X=X  $.n.=X=X=X=X=X=X=X=X=Xy.=X=X=X=Xy.=X=X: * &.=XA.=XA.=Xn.] N p u 0 r t z f c ^ n.=X=X=X=X=X=X=X=X=X=X=X",
"-.=X$.K 5 9 8 n 2.n.=X=Xs.$.2.-.=X=X=X=X=X=X=X=X=Xy.=Xy.=X=XY =X{ n.=X=X=X=X=X>.Y n.$.] C B l w s v ] n.=X=X=XA.=X=X=X=X=X=X=X=X",
"I.=X) -.3 4 2 m 2.s.=X5.~ n.*.2.=X=X=X=X=X=X=X=X=Xy.=X=XP =X=X=Xn.n.n.n.=XA.A.=X=X=X=XI n.n.$.] $.$.^ n.=X=X=X=X=X=X=X=X=X=X=X=X",
"2.=Xn.2.K H K -.I.A.=X=X~.~.~.s.=X=X=X=X=X=X=X=Xy.=Xy.=X=X=X=Xy.n.=X{ =X=X=X=Xy.A.=XI.=XA.=X=X=X^ $.n.n.y.=X=Xy.=X=X=X=X=X=X=X=X",
"=XW =X=X~.~.=XI.=X=XI.=X=X~.8.8.=X=X=X=X=X=X=X=X=X=X=X=X=Xy.=X=X=X=X=X{ =X=Xn.n.=X=X=X=X=X=X=X=Xn.$.{ n.=X=X=X=X=X=X=X=X=X=X=X=X",
"n.n.=X=X=Xn.n.n.=X=X=X=X=X=X=X=X=X=X=X=X=X=X=X=X=X=X=X=X=X=X=X=X=X=X=X=X=Xn.n.n.n.n.n.n.=X=X=X=Xn.n.n.=X=X=X=X=X=X=X=X=X=X=X=X=X",
"n.n.=X=Xn.$.$.n.=X=Xn.=X=X=X=X=X=X=X=X=X=X=X=X=X=X=X=X=X=X=X=X=X=X=X=X=X=Xn.n.n.n.n.n.n.n.n.n.n.n.n.=X=X=X=X=X=X=X=X=X=X=X=X=X=X",
"=X=X=X=Xn.n.n.n.=X=X=X=X=X=X~.~.=X=X=X=X=X=X=X=X=X=X=X=X=X=X=X=Xn.n.n.=X=X=X=X=X=X=X=X=X=Xn.n.n.n.n.=X=X=X=X=X=X=X=Xn.=X=X=X=X=X",
"=X=X=X=X=X=X~.=X=X=X=X~.=X~.~.s.=X=X=X=X=X=X=X=X=X=X=X=X=X=X=X=X=Xn.=X=X=X=X=X=X=X=X=X=X=X=Xn.n.n.=X=X=X=X=X=X=X=X=Xn.n.=X=X=X=X",
"=X=XI.I.=X~.=X=X=X=X=X=X=X~.=X=X=X=X=X=X=X=X=X=X=X=X=X=X=X=X=X=X=X=X=X=X=X=X=X=X=X=X=X=X=X=Xn.n.=X=X=X=X=X=X=X=X=X=Xn.n.=X=X=X=X",
"=X=X=X=X=X~.=X=X=X=X=X=X=X=X=X=X=X=X=X=X=X=X=X=X=X=X=X=X=X=X=X=X=X=X=X=X=X=X=X=X=X=X=X=X=X=X=X=X=X=X=X=X=X=X=X=X=X=Xn.n.=X=X=X=X",
"~.~.~.=X=X=X=X=X=X=X=X=X=X=X=X=X=X=X=X=X=X=X=X=X=X=X=X=X=X=X=X=X=X=X=X=Xn.n.n.n.n.n.=X=X=X=X=X=X=X=X=X=X=X=X=X=X=X=Xn.n.=X=X=X=X",
"8.8.8.s.n.$.n.n.=X=X=X=X=X=X=X=X=X=X=X=X=X=X=X=X=X=X=X=X=X=X=X=X=Xn.n.n.n.$.$.$.$.n.n.=X=X=X=X=X=X=X=X=X=X=X=X=X=X=Xn.n.=X=X=X=X"
};
