/* XPM */
static char *_aa2dfb153ff4ffcb441ed1bf0a7743aiLBKaDBjSpltn6Sj[] = {
/* columns rows colors chars-per-pixel */
"64 64 152 2 ",
"   c black",
".  c #010101",
"X  c #020202",
"o  c gray1",
"O  c #040404",
"+  c gray2",
"@  c #060606",
"#  c #070707",
"$  c #A53695",
"%  c #AB369E",
"&  c #A83998",
"*  c #B03BA3",
"=  c #C42AAC",
"-  c #C62CAE",
";  c #C625B3",
":  c #CA29B7",
">  c #9E4595",
",  c #D7DCBC",
"<  c #D7DCBE",
"1  c #D9DFB9",
"2  c #D9E1AE",
"3  c #D9E1B0",
"4  c #DBE3B0",
"5  c #DBE3B2",
"6  c #DAE0BA",
"7  c #DDE4B8",
"8  c #DEE5BB",
"9  c #DFE6BA",
"0  c #DAE0BC",
"q  c #DEE5BC",
"w  c #D6D9C4",
"e  c #DADFC1",
"r  c #DDE2C2",
"t  c #DEE3C3",
"y  c #DFE5C3",
"u  c #E0E4CD",
"i  c #E5EBC9",
"p  c #E5E9CE",
"a  c #F1F5DE",
"s  c #F7FCDC",
"d  c #FFC9FF",
"f  c #FFCDFF",
"g  c #FFCEFF",
"h  c #FFD2FF",
"j  c #FFDBFF",
"k  c #FFDEFF",
"l  c #FEFFE3",
"z  c #FEFFE5",
"x  c #FDFFE8",
"c  c #FFFFE8",
"v  c #FFFFEA",
"b  c #FFFFED",
"n  c #FFFFEF",
"m  c #FFEAFF",
"M  c #FFEBFF",
"N  c #FFEDFF",
"B  c #FFEEFF",
"V  c #FFEFFF",
"C  c #F3F3F3",
"Z  c #F4F4F4",
"A  c gray96",
"S  c #F6F6F6",
"D  c gray97",
"F  c #F6FBF7",
"G  c #F6FDF6",
"H  c #F7FEF7",
"J  c #FCFEF1",
"K  c #FEFFF0",
"L  c #FFFFF1",
"P  c #FCFEF3",
"I  c #FEFFF3",
"U  c #FFFFF3",
"Y  c #FAF9F7",
"T  c #F8FAF7",
"R  c #FAFCF7",
"E  c #FFFFF4",
"W  c #FDFEF6",
"Q  c #FFFFF6",
"!  c #FBF6FA",
"~  c #FFF0FF",
"^  c #FFF3FF",
"/  c #FAF7FE",
"(  c #FFF6FC",
")  c #FFF4FF",
"_  c #FFF5FF",
"`  c #FFF6FF",
"'  c #FFF7FF",
"]  c #F7FBFA",
"[  c #F6FFFA",
"{  c #F7FCFF",
"}  c #F8F8F8",
"|  c #F9F9F9",
" . c #FAFAF8",
".. c #FBFBF9",
"X. c #F8F9FB",
"o. c #F9F9FB",
"O. c gray98",
"+. c #FBFBFB",
"@. c #FBFDFA",
"#. c #F9FFFB",
"$. c #FAFFFB",
"%. c #FBFFFB",
"&. c #FCFFF8",
"*. c #FFFFF8",
"=. c #FEFFF9",
"-. c #FDFDFB",
";. c #FFFDFA",
":. c #FCFFFB",
">. c #FFFEFA",
",. c #FEFFFA",
"<. c #FFFFFA",
"1. c #FFFEFB",
"2. c #FFFFFB",
"3. c #FAFAFC",
"4. c #FAF8FF",
"5. c #F9FAFE",
"6. c #FDFBFC",
"7. c #FCF9FF",
"8. c #FFFAFE",
"9. c #FFFAFF",
"0. c #FFFBFF",
"q. c #FBFFFC",
"w. c #FAFEFD",
"e. c #FBFFFD",
"r. c #F8FFFF",
"t. c #F9FFFF",
"y. c #FAFEFF",
"u. c #FBFEFF",
"i. c #FAFFFF",
"p. c #FBFFFF",
"a. c gray99",
"s. c #FDFDFD",
"d. c #FFFCFD",
"f. c #FFFDFD",
"g. c #FCFFFD",
"h. c #FEFEFC",
"j. c #FFFEFD",
"k. c #FEFFFD",
"l. c #FFFFFD",
"z. c #FCFCFE",
"x. c #FDFCFF",
"c. c #FFFDFE",
"v. c #FFFCFF",
"b. c #FEFDFF",
"n. c #FFFDFF",
"m. c #FDFEFF",
"M. c #FCFFFF",
"N. c #FEFEFE",
"B. c #FEFEFF",
"V. c #FFFEFF",
"C. c #FEFFFF",
"Z. c white",
/* pixels */
"Z.Z.Z.Z.Z.Z.Z.Z.Z.Z.Z.Z.Z.Z.Z.Z.Z.Z.Z.Z.Z.Z.Z.Z.Z.Z.Z.Z.Z.Z.Z.Z.Z.Z.Z.Z.Z.Z.Z.Z.Z.Z.Z.Z.Z.Z.Z.Z.Z.Z.Z.Z.Z.Z.Z.Z.Z.Z.Z.Z.Z.Z.Z.Z.",
"Z.Z.Z.Z.Z.Z.Z.Z.Z.Z.Z.Z.Z.Z.Z.Z.Z.Z.Z.Z.Z.Z.Z.Z.Z.Z.Z.Z.Z.Z.Z.Z.Z.Z.Z.Z.Z.Z.Z.Z.Z.Z.Z.Z.Z.Z.Z.Z.Z.Z.Z.Z.Z.Z.Z.Z.Z.Z.Z.Z.Z.Z.Z.Z.",
"Z.Z.Z.Z.Z.Z.Z.Z.Z.Z.Z.Z.Z.Z.Z.Z.Z.Z.Z.Z.Z.Z.Z.Z.Z.Z.Z.Z.Z.Z.Z.Z.Z.Z.Z.Z.Z.Z.Z.Z.Z.Z.Z.Z.Z.Z.Z.Z.Z.Z.Z.Z.Z.Z.Z.Z.Z.Z.Z.Z.Z.Z.Z.Z.",
"Z.Z.Z.Z.Z.Z.Z.Z.Z.Z.Z.Z.Z.Z.Z.Z.Z.Z.Z.Z.Z.Z.Z.Z.Z.Z.Z.Z.Z.Z.Z.Z.Z.Z.Z.Z.Z.Z.Z.Z.Z.Z.Z.Z.Z.Z.Z.Z.Z.Z.Z.Z.Z.Z.Z.Z.Z.Z.Z.Z.Z.Z.Z.Z.",
"Z.Z.Z.Z.Z.Z.Z.Z.Z.Z.Z.Z.Z.Z.Z.Z.Z.Z.Z.Z.Z.Z.Z.Z.Z.Z.Z.Z.Z.Z.Z.Z.Z.Z.Z.Z.Z.Z.Z.Z.Z.Z.Z.Z.Z.Z.Z.Z.Z.Z.Z.Z.Z.Z.Z.Z.Z.Z.Z.Z.Z.Z.Z.Z.",
"Z.Z.Z.Z.Z.Z.Z.Z.Z.Z.Z.Z.Z.Z.Z.Z.Z.Z.Z.Z.Z.Z.Z.Z.Z.Z.Z.Z.Z.Z.Z.Z.Z.Z.Z.Z.Z.Z.Z.Z.Z.Z.Z.Z.Z.Z.Z.Z.Z.Z.Z.Z.Z.Z.Z.Z.Z.Z.Z.Z.Z.Z.Z.Z.",
"Z.Z.Z.Z.Z.Z.Z.Z.Z.Z.Z.Z.Z.Z.Z.Z.Z.Z.Z.Z.Z.Z.Z.Z.Z.Z.Z.Z.Z.Z.Z.Z.Z.Z.Z.Z.Z.Z.Z.Z.Z.Z.Z.Z.Z.Z.Z.Z.Z.Z.Z.Z.Z.Z.Z.Z.Z.Z.Z.Z.Z.Z.Z.Z.",
"Z.Z.Z.Z.Z.Z.Z.Z.Z.Z.Z.Z.Z.Z.Z.Z.Z.Z.Z.Z.Z.Z.Z.Z.Z.Z.Z.Z.Z.Z.Z.Z.Z.Z.Z.Z.Z.Z.Z.Z.Z.Z.Z.Z.Z.Z.Z.Z.Z.Z.Z.Z.Z.Z.Z.Z.Z.Z.Z.Z.Z.Z.Z.Z.",
"Z.Z.Z.Z.Z.Z.Z.Z.Z.Z.Z.Z.Z.Z.Z.Z.Z.Z.Z.Z.Z.Z.Z.Z.Z.Z.Z.Z.Z.Z.Z.Z.Z.} Z.Z.Z.Z.Z.Z.Z.Z.} Z.Z.Z.Z.Z.Z.Z.Z.Z.Z.Z.Z.Z.Z.Z.Z.Z.Z.Z.Z.Z.",
"Z.Z.Z.Z.Z.Z.Z.Z.Z.Z.Z.Z.Z.Z.Z.Z.Z.Z.Z.Z.Z.Z.Z.Z.Z.Z.Z.Z.Z.Z.Z.Z.Z.Z.Z.Z.} Z.} Z.Z.Z.Z.Z.Z.} Z.} Z.Z.Z.Z.Z.Z.Z.Z.Z.Z.Z.Z.Z.Z.Z.Z.",
"Z.Z.Z.Z.Z.Z.Z.Z.Z.Z.Z.Z.Z.Z.Z.Z.Z.Z.Z.Z.Z.Z.Z.Z.Z.Z.Z.Z.Z.Z.Z.Z.D Z.Z.} Z.Z.Z.Z.Z.Z.Z.Z.Z.Z.D Z.Z.Z.Z.Z.Z.Z.Z.Z.Z.Z.Z.Z.Z.Z.Z.Z.",
"Z.Z.Z.Z.Z.Z.Z.Z.Z.Z.Z.Z.Z.Z.Z.Z.Z.Z.Z.Z.Z.Z.Z.Z.Z.Z.Z.Z.Z.Z.Z.Z.Z.Z.D Z.Z.Z.Z.Z.Z.Z.} Z.Z.Z.Z.Z.Z.Z.Z.Z.Z.Z.Z.Z.Z.Z.Z.Z.Z.Z.Z.Z.",
"Z.Z.Z.Z.Z.Z.Z.Z.Z.Z.Z.Z.Z.Z.Z.Z.Z.Z.Z.Z.Z.Z.Z.Z.Z.Z.Z.Z.Z.Z.Z.Z.Z.} Z.Z.} Z.Z.Z.Z.} Z.Z.} } Z.Z.Z.Z.Z.Z.Z.Z.Z.Z.Z.Z.Z.Z.Z.Z.Z.Z.",
"Z.Z.Z.Z.Z.Z.Z.Z.Z.Z.Z.Z.Z.Z.Z.Z.Z.Z.Z.Z.Z.Z.Z.Z.Z.Z.Z.Z.Z.Z.Z.Z.Z.Z.Z.Z.Z.Z.Z.} Z.Z.Z.Z.Z.Z.} Z.Z.Z.Z.Z.Z.Z.Z.Z.Z.Z.Z.Z.Z.Z.Z.Z.",
"Z.Z.Z.Z.Z.Z.Z.Z.Z.Z.Z.Z.Z.Z.Z.Z.Z.Z.Z.Z.Z.Z.Z.Z.Z.Z.Z.Z.Z.Z.Z.Z.Z.Z.Z.Z.Z.Z.} Z.} Z.} Z.Z.Z.Z.Z.Z.Z.Z.Z.Z.Z.Z.Z.Z.Z.Z.Z.Z.Z.Z.Z.",
"Z.Z.Z.Z.Z.Z.Z.Z.Z.Z.Z.Z.Z.Z.Z.Z.Z.Z.Z.Z.Z.Z.Z.Z.Z.Z.Z.Z.Z.Z.Z.Z.Z.} Z.      @     @ Z.Z.Z.Z.} Z.Z.Z.Z.Z.Z.Z.Z.Z.Z.Z.Z.Z.Z.Z.Z.Z.",
"Z.Z.Z.Z.Z.Z.Z.Z.Z.Z.Z.Z.Z.Z.Z.Z.Z.Z.Z.Z.Z.Z.Z.Z.Z.} Z.Z.      @   @   Z.Z.Z.} Z.Z.Z.Z.Z.Z.Z.Z.Z.Z.Z.Z.Z.Z.Z.Z.Z.Z.Z.Z.Z.Z.Z.Z.Z.",
"Z.Z.Z.Z.Z.Z.Z.Z.Z.Z.Z.Z.Z.Z.Z.Z.Z.Z.Z.Z.Z.Z.Z.Z.Z.Z.}   @ Z.Z.D Z.Z.Z.Z.Z.Z.Z.} Z.Z.Z.Z.Z.Z.Z.Z.Z.Z.Z.Z.Z.Z.Z.Z.Z.Z.Z.Z.Z.Z.Z.Z.",
"Z.Z.Z.Z.Z.Z.Z.Z.Z.Z.Z.Z.Z.Z.Z.Z.Z.Z.Z.Z.Z.Z.Z.Z.} Z.Z.  Z.} Z.Z.Z.Z.Z.Z.Z.Z.} Z.Z.Z.Z.Z.Z.Z.Z.Z.Z.Z.Z.Z.Z.Z.Z.Z.Z.Z.Z.Z.Z.Z.Z.Z.",
"Z.Z.Z.Z.Z.Z.Z.Z.Z.Z.Z.Z.Z.Z.Z.Z.Z.Z.Z.Z.Z.Z.Z.Z.Z.Z.  Z.Z.Z.Z.} Z.Z.} Z.Z.} Z.Z.Z.Z.Z.Z.Z.Z.Z.Z.Z.Z.Z.Z.Z.Z.Z.Z.Z.Z.Z.Z.Z.Z.Z.Z.",
"Z.Z.Z.Z.Z.Z.Z.Z.Z.Z.Z.Z.Z.Z.Z.Z.Z.Z.Z.Z.Z.Z.Z.Z.Z.Z.  Z.Z.} Z.Z.} } Z.} Z.Z.Z.Z.Z.Z.Z.Z.Z.Z.Z.Z.Z.Z.Z.Z.Z.Z.Z.Z.Z.Z.Z.Z.Z.Z.Z.Z.",
"Z.Z.Z.Z.Z.Z.Z.Z.Z.Z.Z.Z.Z.Z.Z.Z.Z.Z.Z.Z.Z.Z.Z.Z.Z.Z.  Z.} Z.Z.} Z.Z.Z.Z.D Z.} Z.Z.Z.Z.Z.Z.Z.Z.Z.Z.Z.Z.Z.Z.Z.Z.Z.Z.Z.Z.Z.Z.Z.Z.Z.",
"Z.Z.Z.Z.Z.Z.Z.Z.Z.Z.Z.Z.Z.Z.Z.Z.Z.Z.Z.Z.Z.Z.Z.Z.Z.Z.  } Z.Z.D Z.} Z.} Z.Z.Z.Z.} Z.Z.Z.Z.Z.Z.Z.Z.Z.Z.Z.Z.Z.Z.Z.Z.Z.Z.Z.Z.Z.Z.Z.Z.",
"Z.Z.Z.Z.Z.Z.Z.Z.Z.Z.Z.Z.Z.Z.Z.Z.Z.Z.Z.Z.Z.Z.Z.Z.Z.Z.  Z.} Z.Z.Z.Z.Z.Z.Z.Z.Z.Z.Z.Z.Z.Z.Z.Z.Z.Z.Z.Z.Z.Z.Z.Z.Z.Z.Z.Z.Z.Z.Z.Z.Z.Z.Z.",
"Z.Z.Z.Z.Z.Z.Z.Z.Z.Z.Z.Z.Z.Z.Z.Z.Z.Z.Z.Z.Z.Z.Z.Z.Z.Z.  Z.Z.} Z.Z.Z.Z.Z.Z.Z.Z.Z.Z.Z.Z.Z.Z.Z.Z.Z.Z.Z.Z.Z.Z.Z.Z.Z.Z.Z.Z.Z.Z.Z.Z.Z.Z.",
"Z.Z.Z.Z.Z.Z.Z.Z.Z.Z.Z.Z.Z.Z.Z.Z.Z.Z.Z.Z.Z.Z.Z.Z.Z.Z.  Z.} Z.D Z.Z.Z.Z.Z.Z.Z.Z.Z.Z.Z.Z.Z.Z.Z.Z.Z.Z.Z.Z.Z.Z.Z.Z.Z.Z.Z.Z.Z.Z.Z.Z.Z.",
"Z.Z.Z.Z.Z.Z.Z.Z.Z.Z.Z.Z.Z.Z.Z.Z.Z.Z.Z.Z.Z.Z.Z.Z.} Z.  Z.Z.Z.Z.} Z.Z.Z.Z.Z.Z.Z.Z.Z.Z.Z.Z.Z.Z.Z.Z.Z.Z.Z.Z.Z.Z.Z.Z.Z.Z.Z.Z.Z.Z.Z.Z.",
"Z.Z.Z.Z.Z.Z.Z.Z.Z.Z.Z.Z.Z.Z.Z.Z.Z.Z.Z.Z.Z.Z.Z.Z.Z.Z.  Z.} } Z.Z.Z.Z.Z.Z.Z.Z.Z.Z.Z.Z.Z.Z.Z.Z.Z.Z.Z.Z.Z.Z.Z.Z.Z.Z.Z.Z.Z.Z.Z.Z.Z.Z.",
"Z.Z.Z.Z.Z.Z.Z.Z.Z.Z.Z.Z.Z.Z.Z.Z.Z.Z.Z.Z.Z.Z.Z.Z.Z.Z.Z.  Z.Z.Z.Z.Z.Z.Z.Z.Z.Z.Z.Z.Z.Z.Z.Z.Z.Z.Z.Z.Z.Z.Z.Z.Z.Z.Z.Z.Z.Z.Z.Z.Z.Z.Z.Z.",
"Z.Z.Z.Z.Z.Z.Z.Z.Z.Z.Z.Z.Z.Z.Z.Z.Z.Z.Z.Z.Z.Z.Z.Z.Z.} Z.  } } Z.Z.Z.Z.Z.Z.Z.Z.Z.Z.Z.Z.Z.Z.Z.Z.Z.Z.Z.Z.Z.Z.Z.Z.Z.Z.Z.Z.Z.Z.Z.Z.Z.Z.",
"Z.Z.Z.Z.Z.Z.Z.Z.Z.Z.Z.Z.Z.Z.Z.Z.Z.Z.Z.Z.Z.Z.Z.Z.Z.Z.Z.    Z.Z.Z.Z.Z.Z.Z.Z.Z.Z.Z.Z.Z.Z.Z.Z.Z.Z.Z.Z.Z.Z.Z.Z.Z.Z.Z.Z.Z.Z.Z.Z.Z.Z.Z.",
"Z.Z.Z.Z.Z.Z.Z.Z.Z.Z.Z.Z.Z.Z.Z.Z.Z.Z.Z.Z.Z.Z.Z.Z.Z.} Z.}     } Z.Z.Z.Z.Z.Z.Z.Z.Z.Z.Z.Z.Z.Z.Z.Z.Z.Z.Z.Z.Z.Z.Z.Z.Z.Z.Z.Z.Z.Z.Z.Z.Z.",
"Z.Z.Z.Z.Z.Z.Z.Z.Z.Z.Z.Z.Z.Z.Z.Z.Z.Z.Z.Z.Z.Z.Z.Z.Z.Z.Z.Z.Z.      Z.} Z.Z.Z.Z.Z.Z.Z.Z.} Z.Z.Z.Z.Z.Z.Z.Z.Z.Z.Z.Z.Z.Z.Z.Z.Z.Z.Z.Z.Z.",
"Z.Z.Z.Z.Z.Z.Z.Z.Z.Z.Z.Z.Z.Z.Z.Z.Z.Z.Z.Z.Z.Z.Z.Z.Z.} Z.} Z.Z.Z.    @   Z.Z.Z.Z.Z.} Z.Z.Z.Z.} Z.} Z.Z.Z.Z.Z.Z.Z.Z.Z.Z.Z.Z.Z.Z.Z.Z.",
"Z.Z.Z.Z.Z.Z.Z.Z.Z.Z.Z.Z.Z.Z.Z.Z.Z.Z.Z.Z.Z.Z.Z.Z.Z.Z.Z.Z.Z.Z.Z.Z.} Z.      Z.Z.Z.Z.Z.Z.C Z.Z.} Z.Z.Z.Z.Z.Z.Z.Z.Z.Z.Z.Z.Z.Z.Z.Z.Z.",
"Z.Z.Z.Z.Z.Z.Z.Z.Z.Z.Z.Z.Z.Z.Z.Z.Z.Z.Z.Z.Z.Z.Z.Z.} Z.Z.} Z.Z.Z.Z.Z.Z.Z.Z.  @ Z.} Z.D Z.Z.} Z.} Z.Z.Z.Z.Z.Z.Z.Z.Z.Z.Z.Z.Z.Z.Z.Z.Z.",
"Z.Z.Z.Z.Z.Z.Z.Z.Z.Z.Z.Z.Z.Z.Z.Z.Z.Z.Z.Z.Z.Z.Z.Z.Z.Z.Z.Z.Z.D Z.Z.} Z.Z.Z.Z.Z.  Z.Z.Z.} Z.Z.Z.Z.} Z.Z.Z.Z.Z.Z.Z.Z.Z.Z.Z.Z.Z.Z.Z.Z.",
"Z.Z.Z.Z.Z.Z.Z.Z.Z.Z.Z.Z.Z.Z.Z.Z.Z.Z.Z.Z.Z.Z.Z.Z.Z.} Z.} Z.Z.} Z.Z.Z.Z.Z.Z.Z.Z.  } } Z.Z.Z.Z.Z.Z.Z.Z.Z.Z.Z.Z.Z.Z.Z.Z.Z.Z.Z.Z.Z.Z.",
"Z.Z.Z.Z.Z.Z.Z.Z.Z.Z.Z.Z.Z.Z.Z.Z.Z.Z.Z.Z.Z.Z.Z.Z.Z.Z.Z.Z.} } Z.} Z.Z.Z.Z.} } Z.@ Z.Z.Z.Z.Z.Z.Z.Z.Z.Z.Z.Z.Z.Z.Z.Z.Z.Z.Z.Z.Z.Z.Z.Z.",
"Z.Z.Z.Z.Z.Z.Z.Z.Z.Z.Z.Z.Z.Z.Z.Z.Z.Z.Z.Z.Z.Z.Z.Z.Z.} Z.} Z.Z.} Z.Z.} Z.Z.Z.Z.Z.Z.  Z.} Z.Z.Z.Z.Z.Z.Z.Z.Z.Z.Z.Z.Z.Z.Z.Z.Z.Z.Z.Z.Z.",
"Z.Z.Z.Z.Z.Z.Z.Z.Z.Z.Z.Z.Z.Z.Z.Z.Z.Z.Z.Z.Z.Z.Z.Z.Z.Z.Z.Z.Z.Z.Z.Z.Z.Z.Z.Z.Z.Z.Z.Z.  Z.Z.Z.Z.Z.Z.Z.Z.Z.Z.Z.Z.Z.Z.Z.Z.Z.Z.Z.Z.Z.Z.Z.",
"Z.Z.Z.Z.Z.Z.Z.Z.Z.Z.Z.Z.Z.Z.Z.Z.Z.Z.Z.Z.Z.Z.Z.Z.Z.Z.Z.Z.Z.Z.Z.Z.Z.Z.Z.Z.Z.Z.Z.Z.  Z.Z.Z.Z.Z.Z.Z.Z.Z.Z.Z.Z.Z.Z.Z.Z.Z.Z.Z.Z.Z.Z.Z.",
"Z.Z.Z.Z.Z.Z.Z.Z.Z.Z.Z.Z.Z.Z.Z.Z.Z.Z.Z.Z.Z.Z.Z.Z.Z.Z.Z.Z.Z.Z.Z.Z.Z.Z.Z.Z.Z.Z.Z.Z.  Z.Z.Z.Z.Z.Z.Z.Z.Z.Z.Z.Z.Z.Z.Z.Z.Z.Z.Z.Z.Z.Z.Z.",
"Z.Z.Z.Z.Z.Z.Z.Z.Z.Z.Z.Z.Z.Z.Z.Z.Z.Z.Z.Z.Z.Z.Z.Z.Z.Z.Z.Z.Z.Z.Z.Z.Z.Z.Z.Z.Z.Z.Z.Z.  Z.Z.Z.Z.Z.Z.Z.Z.Z.Z.Z.Z.Z.Z.Z.Z.Z.Z.Z.Z.Z.Z.Z.",
"Z.Z.Z.Z.Z.Z.Z.Z.Z.Z.Z.Z.Z.Z.Z.Z.Z.Z.Z.Z.Z.Z.Z.Z.Z.Z.Z.Z.Z.Z.Z.Z.Z.Z.Z.Z.Z.Z.Z.Z.  Z.Z.Z.Z.Z.Z.Z.Z.Z.Z.Z.Z.Z.Z.Z.Z.Z.Z.Z.Z.Z.Z.Z.",
"Z.Z.Z.Z.Z.Z.Z.Z.Z.Z.Z.Z.Z.Z.Z.Z.Z.Z.Z.Z.Z.Z.Z.Z.Z.Z.Z.Z.Z.Z.Z.Z.Z.Z.Z.Z.Z.Z.Z.Z.  Z.Z.Z.Z.Z.Z.Z.Z.Z.Z.Z.Z.Z.Z.Z.Z.Z.Z.Z.Z.Z.Z.Z.",
"Z.Z.Z.Z.Z.Z.Z.Z.Z.Z.Z.Z.Z.Z.Z.Z.Z.Z.Z.Z.Z.Z.Z.Z.Z.Z.Z.Z.Z.Z.Z.Z.Z.Z.Z.Z.Z.Z.Z.Z.  Z.Z.Z.Z.Z.Z.Z.Z.Z.Z.Z.Z.Z.Z.Z.Z.Z.Z.Z.Z.Z.Z.Z.",
"Z.Z.Z.Z.Z.Z.Z.Z.Z.Z.Z.Z.Z.Z.Z.Z.Z.Z.Z.Z.Z.Z.Z.Z.Z.Z.Z.Z.Z.Z.Z.Z.Z.Z.Z.Z.Z.Z.Z.Z.  Z.Z.Z.Z.Z.Z.Z.Z.Z.Z.<.<.<.Z.Z.Z.Z.Z.Z.Z.Z.Z.Z.",
"<.Z.p.{ Z.<.Z.$.$.Z.R p.p.p.Z.<.Z.Z.Z.Z.Z.Z.Z.Z.Z.Z.Z.Z.Z.Z.Z.Z.Z.Z.Z.Z.Z.Z.Z.Z.  } Z.Z.} Z.Z.5.Z.Z.<.U U U <.Z.Z.Z.<.<.<.Z.Z.Z.",
"<.Z.Z.p.H Z.B ~ ~ B Z.H p.p.Z.<.T Z.Z.} Z.} Z.} Z.} Z.Z.Z.Z.Z.Z.Z.Z.} Z.Z.Z.Z.    Z.Z.} Z.} Z.Z.5.Z.E a p u U Z.Z.Z.<.<.<.Z.Z.Z.",
"9.Z.9.5.$.' > f d j ' $.Z.Z.9.Z.Z.Z.Z.Z.Z.Z.Z.Z.Z.Z.Z.Z.Z.} Z.Z.Z.Z.Z.Z.Z.Z.  @ Z.} Z.Z.Z.Z.Z.5.Z.Z.n r 0 , n <.Z.Z.Z.<.<.Z.Z.Z.",
"Z.9.Z.Z.[ B * ; : % ~ $.Z.Z.Z.Z.Z.} } O   @         } Z.Z.Z.Z.Z.Z.Z.        Z.Z.Z.Z.Z.Z.Z.Z.Z.Z.Z.<.x 1 7 q x U Z.Z.Z.<.<.<.Z.Z.",
"! Z./ Z.p.~ $ = - & ~ $.Z.Z.Z.Z.Z.D Z.Z.Z.} Z.Z.Z.Z.@               Z.Z.Z.} Z.} Z.Z.Z.Z.Z.Z.Z.Z.} E z 7 4 4 s U <.Z.Z.Z.<.<.Z.Z.",
"Z.Z.Z.} T ' k h f k ' Z.Z.Z.Z.Z.Z.Z.Z.Z.Z.Z.D Z.Z.Z.Z.Z.Z.Z.Z.Z.Z.Z.Z.} Z.Z.} Z.Z.Z.Z.} } Z.} Z.<.E l 7 2 4 i n <.Z.Z.Z.<.<.Z.Z.",
"F Z.} Z.} ' ~ m B m 9.} Z.Z.Z.Z.Z.Z.Z.Z.Z.Z.Z.Z.Z.Z.Z.Z.Z.Z.Z.Z.Z.Z.Z.Z.Z.Z.} Z.Z.Z.Z.Z.Z.} Z.Z.Z.U x 6 7 7 e U <.Z.Z.Z.<.<.Z.Z.",
"Z.Z.] Z.Z.Z.Z.Z.9.Z.} Z.Z.p.Z.p.Z.Z.Z.Z.D Z.Z.Z.Z.Z.Z.Z.Z.Z.Z.Z.Z.Z.Z.Z.Z.} Z.Z.Z.} Z.} Z.Z.} Z.Z.E n , y r w E <.Z.Z.<.<.<.Z.Z.",
"Z.Z.Z.Z.Z.Z.p.p.p.p.p.p.Z.Z.Z.Z.Z.Z.Z.Z.Z.Z.Z.Z.Z.Z.Z.Z.Z.Z.Z.Z.Z.Z.Z.Z.Z.Z.Z.Z.Z.Z.Z.Z.Z.Z.Z.Z.Z.<.E U U U E <.<.Z.<.<.<.Z.Z.Z.",
"Z.Z.Z.Z.Z.p.p.p.Z.p.p.p.Z.Z.Z.Z.Z.Z.Z.Z.Z.Z.Z.Z.Z.Z.Z.Z.Z.Z.Z.Z.Z.Z.Z.Z.Z.Z.Z.Z.Z.Z.Z.Z.Z.Z.Z.Z.Z.Z.<.<.<.<.Z.Z.Z.<.<.<.<.Z.Z.Z.",
"Z.Z.Z.Z.Z.Z.Z.Z.Z.Z.Z.p.Z.Z.Z.Z.Z.Z.Z.Z.Z.Z.Z.Z.Z.Z.Z.Z.Z.Z.Z.Z.Z.Z.Z.Z.Z.Z.Z.Z.Z.Z.Z.Z.Z.Z.Z.Z.Z.Z.Z.Z.Z.Z.Z.Z.Z.<.<.<.<.Z.Z.Z.",
"Z.Z.Z.Z.Z.<.Z.Z.Z.Z.<.Z.Z.Z.Z.Z.Z.Z.Z.Z.Z.Z.Z.Z.Z.Z.Z.Z.Z.Z.Z.Z.Z.Z.Z.Z.Z.Z.Z.Z.Z.Z.Z.Z.Z.Z.Z.Z.Z.Z.Z.Z.Z.Z.Z.Z.Z.Z.<.<.Z.Z.Z.Z.",
"<.Z.Z.Z.<.<.<.<.<.<.<.<.Z.Z.Z.Z.Z.Z.Z.Z.Z.Z.Z.Z.Z.Z.Z.Z.Z.Z.Z.Z.Z.Z.Z.Z.Z.Z.Z.Z.Z.Z.Z.Z.Z.Z.Z.Z.Z.Z.Z.Z.Z.Z.Z.Z.Z.Z.Z.Z.Z.Z.Z.Z.",
"Z.Z.Z.Z.Z.<.<.<.<.<.<.Z.Z.Z.Z.Z.Z.Z.Z.Z.Z.Z.Z.Z.Z.Z.Z.Z.Z.Z.Z.Z.Z.Z.Z.Z.Z.Z.Z.Z.Z.Z.Z.Z.Z.Z.Z.Z.Z.Z.Z.Z.Z.Z.Z.Z.Z.Z.Z.Z.Z.Z.Z.Z.",
"p.Z.<.Z.Z.Z.Z.Z.Z.Z.Z.Z.Z.<.Z.Z.Z.Z.Z.Z.Z.Z.Z.Z.Z.Z.Z.Z.Z.Z.Z.Z.Z.Z.Z.Z.Z.Z.Z.Z.Z.Z.Z.Z.Z.Z.Z.Z.Z.Z.Z.<.<.<.<.<.Z.Z.Z.Z.Z.Z.Z.<.",
"p.p.<.<.Z.Z.Z.Z.Z.Z.Z.Z.<.<.p.p.Z.Z.Z.Z.Z.Z.Z.Z.Z.Z.Z.Z.Z.Z.Z.Z.Z.Z.Z.Z.Z.Z.Z.Z.Z.Z.Z.Z.Z.Z.Z.Z.Z.Z.Z.<.<.E E <.Z.Z.Z.Z.Z.Z.<.<."
};
