/* XPM */
static char *_279ba93d37a492fb8096f13a869988c8b3Z7M7bUmTTOvrE[] = {
/* columns rows colors chars-per-pixel */
"64 64 233 2 ",
"   c black",
".  c #010101",
"X  c #020202",
"o  c gray1",
"O  c #040404",
"+  c gray2",
"@  c #070707",
"#  c gray3",
"$  c gray4",
"%  c #A43C9D",
"&  c #A93FA4",
"*  c #AA3AA8",
"=  c #AC3CA8",
"-  c #B32DB0",
";  c #B633BF",
":  c #BB30BD",
">  c #BA31BD",
",  c #B938B9",
"<  c #C230BF",
"1  c #9D4C9B",
"2  c #A5429F",
"3  c #A641AB",
"4  c #B928C1",
"5  c #BE2AC0",
"6  c #BF2AC4",
"7  c #BE30C2",
"8  c #D01FD1",
"9  c #D517D9",
"0  c #D81FDD",
"q  c #C220C3",
"w  c #CD21CD",
"e  c #D6DEAB",
"r  c #D5DDAE",
"t  c #D9DFB9",
"y  c #D8E2A6",
"u  c #D9E1AE",
"i  c #DAE3AE",
"p  c #DEE6B3",
"a  c #DCE4B5",
"s  c #DCE3BA",
"d  c #DDE3BF",
"f  c #DFE6BC",
"g  c #DEE4BE",
"h  c #E1EBAF",
"j  c #E1EAB3",
"k  c #E2ECB0",
"l  c #D7DBC0",
"z  c #DBDFC4",
"x  c #DADEC7",
"c  c #DADDC8",
"v  c #DBE0C0",
"b  c #DFE5C1",
"n  c #DEE4C2",
"m  c #DEE3C5",
"M  c #DEE1CC",
"N  c #DEE1CE",
"B  c #E2E9C0",
"V  c #E2E8C6",
"C  c #E0E3CE",
"Z  c #E1E4CF",
"A  c #E3E8CA",
"S  c #F4FCCD",
"D  c #FEFFCB",
"F  c #FFFFD3",
"G  c #FCFFDC",
"H  c #FFC9FF",
"J  c #FFCBFF",
"K  c #FFD1FF",
"L  c #FFD3FF",
"P  c #FFD4FF",
"I  c #FFD5FF",
"U  c #FFD6FF",
"Y  c #FFD7FF",
"T  c #FFD9FF",
"R  c #FFDAFF",
"E  c #FFDBFF",
"W  c #FFDDFF",
"Q  c #F9FEE0",
"!  c #FBFFE2",
"~  c #FEFFE5",
"^  c #FCFFE7",
"/  c #F4F7EE",
"(  c #FAFDE8",
")  c #FAFDEA",
"_  c #FFFFED",
"`  c #FDFFEF",
"'  c #FFFFEF",
"]  c #FFE2FF",
"[  c #FFE3FF",
"{  c #FFE7FF",
"}  c #FFE8FF",
"|  c #FFE9FF",
" . c #FFEDFF",
".. c #FFEEFF",
"X. c #FFEFFF",
"o. c #F3F3F3",
"O. c #F6F7F1",
"+. c #F4F4F4",
"@. c gray96",
"#. c #F6F6F4",
"$. c #F6F6F6",
"%. c gray97",
"&. c #F4F9F3",
"*. c #F7FFF3",
"=. c #F7FFF4",
"-. c #F7FEF6",
";. c #F7FFF6",
":. c #F9FAF2",
">. c #FAFBF3",
",. c #FFFFF1",
"<. c #FCFEF3",
"1. c #FDFFF3",
"2. c #FFFFF3",
"3. c #F9FAF5",
"4. c #F8FAF7",
"5. c #FAFBF6",
"6. c #FFF9F6",
"7. c #FCFBF6",
"8. c #FBFCF6",
"9. c #FBFCF7",
"0. c #F9FFF6",
"q. c #F9FEF7",
"w. c #FCFFF4",
"e. c #FDFFF4",
"r. c #FEFFF4",
"t. c #FFFFF4",
"y. c #FFFEF5",
"u. c #FEFFF5",
"i. c #FDFEF6",
"p. c #FCFFF6",
"a. c #FEFEF6",
"s. c #FFFFF6",
"d. c #FEFFF7",
"f. c #FFFFF7",
"g. c #F7F5FA",
"h. c #F5F6FA",
"j. c #F7F5FF",
"k. c #FFF2F9",
"l. c #FBF6FA",
"z. c #FFF7FA",
"x. c #FFF0FF",
"c. c #FFF1FF",
"v. c #FFF2FF",
"b. c #FFF3FF",
"n. c #FBF5FF",
"m. c #FFF4FF",
"M. c #FFF5FF",
"N. c #FFF6FF",
"B. c #FFF7FF",
"V. c #F6FAFB",
"C. c #F4FDF8",
"Z. c #F6FFFB",
"A. c #F8F8F8",
"S. c #F9F9F9",
"D. c #F9FBF8",
"F. c #FBFBF9",
"G. c #F9F9FB",
"H. c gray98",
"J. c #FBFBFB",
"K. c #FEF8FA",
"L. c #FFF8FB",
"P. c #FEFAFB",
"I. c #F9FEF8",
"U. c #F9FFF8",
"Y. c #FBFFF8",
"T. c #FAFFF9",
"R. c #F8FCFB",
"E. c #FBFDFA",
"W. c #FAFCFB",
"Q. c #FBFFFA",
"!. c #FAFFFB",
"~. c #FBFFFB",
"^. c #FDFCF8",
"/. c #FCFDF8",
"(. c #FFFDF8",
"). c #FDFEF9",
"_. c #FEFFF8",
"`. c #FFFFF8",
"'. c #FFFEF9",
"]. c #FEFFF9",
"[. c #FCFCFA",
"{. c #FDFDFB",
"}. c #FCFFFB",
"|. c #FEFFFA",
" X c #FFFFFA",
".X c #FFFEFB",
"XX c #FEFFFB",
"oX c #FFFFFB",
"OX c #FAFAFC",
"+X c #FBF8FF",
"@X c #F9FAFF",
"#X c #FFF9FC",
"$X c #FFF9FD",
"%X c #FDFBFC",
"&X c #FFFBFD",
"*X c #FFF8FF",
"=X c #FFF9FF",
"-X c #FCFAFF",
";X c #FCFBFF",
":X c #FFFAFE",
">X c #FFFAFF",
",X c #FFFBFF",
"<X c #F8FEFC",
"1X c #F9FFFD",
"2X c #FAFEFD",
"3X c #FBFFFD",
"4X c #F8FCFF",
"5X c #FAFDFF",
"6X c #F9FFFF",
"7X c #FAFEFF",
"8X c #FBFFFF",
"9X c gray99",
"0X c #FDFDFD",
"qX c #FFFDFD",
"wX c #FEFEFC",
"eX c #FEFFFD",
"rX c #FFFFFD",
"tX c #FCFCFF",
"yX c #FDFCFF",
"uX c #FDFDFF",
"iX c #FFFCFE",
"pX c #FEFCFF",
"aX c #FFFCFF",
"sX c #FEFDFF",
"dX c #FFFDFF",
"fX c #FDFFFE",
"gX c #FDFEFF",
"hX c #FCFFFF",
"jX c #FEFEFE",
"kX c #FEFEFF",
"lX c #FFFEFF",
"zX c #FEFFFF",
"xX c white",
/* pixels */
"xXxXxXxXxXxXxXxXxXxXxXxXxXxXxXxXxXxXxXxXxXxXxXxXxXxXxXxXxXxXxXxXxXxXxXxXxXxXxXxXxXxXxXxXxXxXxXxXxXxXxXxXxXxXxXxXxXxXxXxXxXxXxXxX",
"xXxXxXxXxXxXxXxXxXxXxXxXxXxXxXxXxXxXxXxXxXxXxXxXxXxXxXxXxXxXxXxXxXxXxXxXxXxXxXxXxXxXxXxXxXxXxXxXxXxXxXxXxXxXxXxXxXxXxXxXxXxXxXxX",
"xXxXxXxXxXxXxXxXxXxXxXxXxXxXxXxXxXxXxXxXxXxXxXxXxXxXxXxXxXxXxXxXxXxXxXxXxXxXxXxXxXxXxXxXxXxXxXxXxXxXxXxXxXxXxXxXxXxXxXxXxXxXxXxX",
"xXxXxXxXxXxXxXxXxXxXxXxXxXxXxXxXxXxXxXxXxXxXxXxXxXxXxXxXxXxXxXxXxXxXxXxXxXxXxXxXxXxXxXxXxXxXxXxXxXxXxXxXxXxXxXxXxXxXxXxXxXxXxXxX",
"xXxXxXxXxXxXxXxXxXxXxXxXxXxXxXxXxXxXxXxXxXxXxXxXxXxXxXxXxXxXxXxXxXxXxXxXxXxXxXxXxXxXxXxXxXxXxXxXxXxXxXxXxXxXxXxXxXxXxXxXxXxXxXxX",
"xXxXxXxXxXxXxXxXxXxXxXxXxXxXxXxXxXxXxXxXxXxXxXxXxXxXxXxXxXxXxXxXxXxXxXxXxXxXxXxXxXxXxXxXxXxXxXxXxXxXxXxXxXxXxXxXxXxXxXxXxXxXxXxX",
"xXxXxXxXxXxXxXxXxXxXxXxXxXxXxXxXxXxXxXxXxXxXxXxXxXxXxXxXxXxXxXxXxXxXxXxXxXxXxXxXxXxXxXxXxXxXxXxXxXxXxXxXxXxXxXxXxXxXxXxXxXxXxXxX",
"xXxXxXxXxXxXxXxXxXxXxXxXxXxXxXxXxXxXxXxXxXxXxXxXxXxXxXxXxXxXxXxXxXxXxXxXxXxXxXxXxXxXxXxXxXxXxXxXxXxXxXxXxXxXxXxXxXxXxXxXxXxXxXxX",
"xXxXxXxXxXxXxXxXxXxXxXxXxXxXxXxXxXxXxXxXxXxXxXxXxXxXxXxXxXxXxXxXxXxXxXxXxXxXxXxXxXxXxXxXxXxXxXxXxXxXxXxXxXxXxXxXxXxXxXxXxXxXxXxX",
"xXxXxXxXxXxXxXxXxXxXxXxXxXxXxXxXxXxXxXxXxXxXxXxXxXxXxXxXxXxXxXxXxXxXxXxXxXxXxXxXxXxXxXxXxXxXxXxXxXxXxXxXxXxXxXxXxXxXxXxXxXxXxXxX",
"xXxXxXxXxXxXxXxXxXxXxXxXxXxXxXxXxXxXxXxXxXxXxXxXxXxXxXxXxXxXxXxXxXxXxXxXxXxXxXxXxXxXxXxXxXxXxXxXxXxXxXxXxXxXxXxXxXxXxXxXxXxXxXxX",
"xXxXxXxXxXxXxXxXxXxXxXxXxXxXxXxXxXxXxXxXxXxXxXxXxXxXxXxXxXxXxXxXxXxXxXxXxXxXxXxXxXxXxXxXxXxXxXxXxXxXxXxXxXxXxXxXxXxXxXxXxXxXxXxX",
"xXxXxXxXxXxXxXxXxXxXxXxXxXxXxXxXxXxXxXxXxXxXxXxXxXxXxXxXxXxXxXxXxXxXxXxXxXxXxXxXxXxXxXxXxXxXxXxXxXxXxXxXxXxXxXxXxXxXxXxXxXxXxXxX",
"xXxXxXxXxXxXxXxXxXxXxXxXxXxXxXxXxXxXxXxXxXxXxXxXxXxXxXxXxXxXxXxXxXxXxXxXxXxXxXxXxXxXxXxXxXxXxXxXxXxXxXxXxXxXxXxXxXxXxXxXxXxXxXxX",
"xXxXxXxXxXxXxXxXxXxXxXxXxXxXxXxXxXxXxXxXxXxXxXxXxXxXxXxXxXxXxXxXxXxXxXxXxXxXxXxXxXxXxXxXxXxXxXxXxXxXxXxXxXxXxXxXxXxXxXxXxXxXxXxX",
"xXxXxXxXxXxXxXxXxXxXxXxXxXxXxXxXxXxXxXxXxXxXxXxXxXxXxXxXxXxXxXxXxXxXxXxXxXxXxXxXxXxXxXxXxXxXxXxXxXxXxXxXxXxXxXxXxXxXxXxXxXxXxXxX",
"xXxXxXxXxXxXxXxXxXxXxXxXxXxXxXxXxXxXxXxXxXxXxXxXxXxXxXxXxXxXxXxXxXxXxXxX%.xXxXxXxXxXxXxXxXxXH.xXxXxXxXxXxXxXxXxXxXxXxXxXxXxXxXxX",
"xXxXxXxXxXxXxXxXxXxXxXxXH.xXxX  xXxXxXxXxXxXxXxXxXxXxXxXxXxXxXxXxXxXH.xXxX%.xXxXxXxXH.xXxXxXxXxXxXxXxXxXxXxXxXxXxXxXxXxXxXxXxXxX",
"xXxXxXxXxXxXxXxXH.xXxXxXxXH.xX  xXxXxXxXxXxXxXxXxXxXxXxXxXxXxXxXxXH.xXxXxXxXH.xXxXH.xXxXxXxX%.xXxXxXxXxXxXxXxXxXxXxXxXxXxXxXxXxX",
"xXxXxXxXxXxXxXxXxXH.xXxXxXxX%.  xXxXxXxXxXxXxXxXxXxXxXxXxXxXxXxXxXxXxXxXH.xXH.xXH.xXxXxXxXxXxXxXxXxXxXxXxXxXxXxXxXxXxXxXxXxXxXxX",
"xXxXxXxXxXxXxXxXxXxXxXxX%.xXxX  xXxXxXxXxXxXxXxXxXxXxXxXxXxXxXxXxXH.xXxXxXxXxXxXO   xXH.xXH.xXH.xXxXxXxXxXxXxXxXxXxXxXxXxXxXxXxX",
"xXxXxXxXxXxXxXxXxXxXH.xXxXxXH.  xXxXxXxXxXxXxXxXxXxXxXxXxXxXxXxXxXxXxXxX%.H.xX    xXxXH.xXxXxXxXxXxXxXxXxXxXxXxXxXxXxXxXxXxXxXxX",
"xXxXxXxXxXxXxXxXxXH.xXxXH.xXxXO xXxXxXxXxXxXxXxXxXxXxXxXxXxXxXxXH.xXxXxXxXxXxX  xXxXxXxXxXH.xXxXxXxXxXxXxXxXxXxXxXxXxXxXxXxXxXxX",
"xXxXxXxXxXxXxXxXxXxXxXxXH.xXxX  xXxXxXxXxXxXxXxXxXxXxXxXxXxXxXxXxXxXxXxXxXxXxX  xXxXxXH.xXxXxXxXxXxXxXxXxXxXxXxXxXxXxXxXxXxXxXxX",
"xXxXxXxXxXxXxXxXxXxXxXxXxX%.xX  xXxXxXH.xXxXxXxXxXxXxXxXxXxXxXxXxXxXxXxXxXxX  xXxXxXxXxXxXxXxXxXxXxXxXxXxXxXxXxXxXxXxXxXxXxXxXxX",
"xXxXxXxXxXxXxXxXxXxXxXxXH.xXxX  xXxX%.xXxXH.xXxXxXxXxXxXxXxXxXxXxXxXxXH.xXxX  xXxXxXxXxXxXxXxXxXxXxXxXxXxXxXxXxXxXxXxXxXxXxXxXxX",
"xXxXxXxXxXxXxXxXxXxXH.xXxXH.xX  xXH.xXxXxXxXH.xXxXxXxXxXxXxXxXxXxXxXxXxXxX  xXxXxXxXxXxXxXxXxXxXxXxXxXxXxXxXxXxXxXxXxXxXxXxXxXxX",
"xXxXxXxXxXxXxXxXxXH.xXxXxXxXxX  xXH.xXH.xXxXxXxXxXxXxXxXxXxXxXxXxXxXxXxXH.  xXH.xXxXxXxXxXxXxXxXxXxXxXxXxXxXxXxXxXxXxXxXxXxXxXxX",
"xXxXxXxXxXxXxXxXxXxXxXxXH.H.xX  xXxXxXxXxXxXH.xXxXxXxXxXxXxXxXxXxXxXH.xX  O xXxXxXxXxXxXxXxXxXxXxXxXxXxXxXxXxXxXxXxXxXxXxXxXxXxX",
"xXxXxXxXxXxXxXxXxXxXxXxXxXxXxXxX  xXH.%.xXxXxXxXxXxXxXxXxXxXxXxXxXxXxXxX  xXxXxXxXxXxXxXxXxXxXxXxXxXxXxXxXxXxXxXxXxXxXxXxXxXxXxX",
"xXxXxXxXxXxXxXxXxXxXxXxXo.xXxXxX  xXxXxXxXxXxXH.xXxXxXxXxXxXxXxXxXH.xXxX  xXxXxXxXxXxXxXxXxXxXxXxXxXxXxXxXxXxXxXxXxXxXxXxXxXxXxX",
"xXxXxXxXxXxXxXxXxXxXxXxXxXxXxXxX  xXxXxXxXxXxXxXxXxXxXxXxXxXxXxXxXxXxX  xXxXxXxXxXxXxXxXxXxXxXxXxXxXxXxXxXxXxXxXxXxXxXxXxXxXxXxX",
"xXxXxXxXxXxXxXxXxXxXxXxXxXxXxXxX  H.xXH.H.xXxXxXxXxXxXxXxXxXH.xXxXxXxX  xXxXxXxXxXxXxXxXxXxXxXxXxXxXxXxXxXxXxXxXxXxXxXxXxXxXxXxX",
"xXxXxXxXxXxXxXxXxXxXxXxXxXxXxXxX  xXxXxXxXxX%.xXH.xXxXH.xXxXxXxXxXH.xXO xXxXH.xXxXxXxXxXxXxXxXxXxXxXxXxXxXxXxXxXxXxXxXxXxXxXxXxX",
"xXxXxXxXxXxXxXxXxXxXxXxXxXxXxXxX  H.xXxXxXo.xXxXxXxXH.xXxXxXxXH.xXxXxX  H.xXxXxXxXxXxXxXxXxXxXxXxXxXxXxXxXxXxXxXxXxXxXxXxXxXxXxX",
"xXxXxXxXxXxXxXxXxXxXxXxXxXxXxXxX  xXxX%.xXxXxXxXxXxXxXxXxXxXxXxXxXxX  xXxXxXxXxXxXxXxXxXxXxXxXxXxXxXxXxXxXxXxXxXxXxXxXxXxXxXxXxX",
"xXxXxXxXxXxXxXxXxXxXxXxXxXxXxXxX  xXxXxXxXxXxXH.xXxXH.xXxXxXxXH.xXH.O xXxXxXH.xXxXxXxXxXxXxXxXxXxXxXxXxXxXxXxXxXxXxXxXxXxXxXxXxX",
"xXxXxXxXxXxXxXxXxXxXxXxXxXxXxXxXxX  H.xXxXxXxXxXxXxXxX$ %.xXxXxXxXxX  xXH.xXxXxXxXxXxXxXxXxXxXxXxXxXxXxXxXxXxXxXxXxXxXxXxXxXxXxX",
"xXxXxXxXxXxXxXxXxXxXxXxXxXxXxXxXxX  xXH.xXxXH.xXxX%.xX  H.xXH.xXxXxX  H.xXxX%.xXxXxXxXxXxXxXxXxXxXxXxXxXxXxXxXxXxXxXxXxXxXxXxXxX",
"xXxXxXxXxXxXxXxXxXxXxXxXxXxXxXxXxX  xXxXxXxXxXxXxXxX    xXH.xXxXxX  xXxXxXH.xXxXxXxXxXxXxXxXxXxXxXxXxXxXxXxXxXxXxXxXxXxXxXxXxXxX",
"xXxXxXxXxXxXxXxXxXxXxXxXxXxXxXxXxXxX  xXxXxXxXxXH.xX  O xXxXH.xXxX  H.xXxXxXH.xXxXxXxXxXxXxXxXxXxXxXxXxXxXxXxXxXxXxXxXxXxXxXxXxX",
"xXxXxXxXxXxXxXxXxXxXxXxXxXxXxXxXxXxX  xXxXxXxXxXxXxX    H.xXxXH.xX  xXxXxXH.xXxXxXxXxXxXxXxXxXxXxXxXxXxXxXxXxXxXxXxXxXxXxXxXxXxX",
"xXxXxXxXxXxXxXxXxXxXxXxXxXxXxXxXxXxXxX  xXxXxXxXxX  xXO xXH.xXxXxXO xXH.xXxXH.xXxXxXxXxXxXxXxXxXxXxXxXxXxXxXxXxXxXxXxXxXxXxXxXxX",
"xXxXxXxXxXxXxXxXxXxXxXxXxXxXxXxXxXxXxXO xXxXxXxXxX  xXxX  xXH.xXxX  xXxXxXxXH.xXxXxXxXxXxXxXxXxXxXxXxXxXxXxXxXxXxXxXxXxXxXxXxXxX",
"xXxXxXxXxXxXxXxXxXxXxXxXxXxXxXxXxXxXxX  xXxXxX%.  H.xXxX  %.xXxXxX  xXH.xXxXH.xXxXxXxXxXxXxXxXxXxXxXxXxXxXxXxXxXxXxXxXxXxXxXxXxX",
"xXxXxXxXxXxXxXxXxXxXxXxXxXxXxXxXxXxXH.xX  H.xXxX  xXxXxX  xXxXxX  xXxXH.xXxXxXxXxXxXxXxXxXxXxXxXxXxXxXxXxXxXxXxXxXxXxXxXxXxXxXxX",
"xXxXxXxXxXxXxXxXxXxXxXxXxXxXxXxXxX%.xXH.  xXxX  xXH.xXxX  xXxXxX  xXH.xXxXxXxXxXxXxXxXxXxXxXxXxXxXxXxXxXxXxXxXxXxXxXxXxXxXxXxXxX",
"xXxXxXxXxXxXxXxXxXxXxXxXxXxXxXxXH.xXH.xX    xX  H.xXxXxX  xXxXxX  xXxXxXxXxXH.xXxXxXxXxXxXxXxXxXxXxXxXxXxXxXxXxXxXxXxXxXxXxXxXxX",
",X,Xl.xX8X8XxXxXxX,XxXxXxXP.,XxXxXxXxXxXxX    xXxXxXxXxX  xXxXxX  xXH.xXxXxXxXxXxXxXxXxXxXxXxXxXoX9.xXxXxXxXxXxXxXoXxXxXxXxXxXxX",
"n.xXxXoXoXT.oX%.+XxXxXg.xXxX,XxXxXxXH.xXH.$   H.xXxXxXxX  xXH.O xXxXxXxXxXxXxXxXxXxXxXxXxXxXxXxX4.oX:.oXt.oX1.t.:.t.oXoXxXxXxXxX",
"8X8XH.oXt.t.t.t.oXT.T.xXxXC.&.oXoXH.xXxXxX%.xXxXxXxXxX%.xX  O xXH.H.xXxXxXxXxXxXxXxXxXxXxXxXxXxXoXt.1.C l m A z _ 1.t.oXxXxXxXxX",
"m.m.v...v.{ v.m.,XxXoXoX8X8XT.9.xXxXxXxXxXxXxXH.xX%.xXxX%.    xXxXxXH.xXxXxXxXH.xXxXxXxXxXxXxXxX4.t.c v f S a s ! _ t.4.xXxXoXoX",
"T P H L L P T W } v.k.6.xXxXxXxXxXxXH.xXxXxXxXxXxXxXH.xXH.xXxXxXxX%.xXxXH.xXH.xXxXxXxXxXxXxXxXxXxXoXz G i k h p d ) oXxXxXxXoXoX",
"% = , : : 7 4 ; 3 T m.oXxXxXxXxXxXxXxXxXxXxXxXxXH.xXxXxXxXxXxXH.xXxXxXo.xXxXH.xXxXxXxXxXxXxXxXxXxX4.M f j D y i V ) oXxXxXxXxXoX",
"] 1 * - < q 9 0 6 P v.T.oXxXT.xXxXxXxXxXxXH.xXxXxX%.xXxXH.xXxXxXH.xXxXxXxXH.xXH.xXxXxXxXxXxXxXxXxXH.1.~ r F e B ~ t.xX,XxXxXxXxX",
"..} W P L H w 8 5 P ..T.oXxXxX8XxXxXxXxXxXxXxXxXxXxXxXxXH.xXxXxXxXxXH.xXxXxXxXxXxXxXxXxXxXxXxXxXxXxXoX_ b t b ! 1.oXxXxXxXxXxXxX",
"v.} ....v...T & 2 ] ,X1.xX,Xj.xXxXxXxXxXxXxXxXxXxXxXxXxXxXxXxXxXxXxXxXxXxXxXxXxXxXxXxXxXxXxXxXxXxXxXxXt._ Z M 1.oXxXxXxXxXxXxXxX",
"m.,Xm.z.9.9.v.] ] ..6.t.P.,XxXxXxXxXxXxXxXxXxXxXxXxXxXxXxXxXxXxXxXxXxXxXxXxXxXxXxXxXxXxXxXxXxXxX,XxXxXoXoX:.O.oXxXxXxXxXxXxXxXxX",
"xXxX,XxXt.oXm.m.m.m.oXt.xX,XxXxXxXxXxXxXxXxXxXxXxXxXxXxXxXxXxXxXxXxXxXxXxXxXxXxXxXxXxXxXxXxXxXxXoXoXxXH.xXxXxXxXxXxXxXoXoXoXoXoX",
"T.-.xXxX/ oX,Xg.g.xXoX/ xXxXP.xXxXxXxXxXxXxXxXxXxXxXxXxXxXxXxXxXxXxXxXxXxXxXxXxXxXxXxXxXxXxXxXxXoXoXoXxXxXxXxXxXxXxXoXoXoXoXoXoX",
"*.-.C.8XxXxXxXxXoXt.t.oXxXxXxXxXxXxXxXxXxXxXxXxXxXxXxXxXxXxXxXxXxXxXxXxXxXxXxXxXxXxXxXxXxXxXxXxXoX9.oXxXxX,XxXxXxXoXoXoXoXoXoXoX",
"-.T.C.8XxXxXxXoXoXt.oXoX,X+XxX8XxXxXxXxXxXxXxXxXxXxXxXxXxXxXxXxXxXxXxXxXxXxXxXxXxXxXxXxXxXxXxXxXoXoXxXxXxXxXxXxXxXoXoXoXoXxXxXxX",
",XxXxXxXV.8XxXxXxXxXxX4.xXxXxX8XxXxXxXxXxXxXxXxXxXxXxXxXxXxXxXxXxXxXxXxXxXxXxXxXxXxXxXxXxXxXxXxXxXxXxXxXxXxXxXH.xXxXxXxXxXxXxXxX",
",X,X,XxXxX8X+X,X,X+XxXxXxXT.xXxXxXxXxXxXxXxXxXxXxXxXxXxXxXxXxXxXxXxXxXxXxXxXxXxXxXxXxXxXxXxXxXxXxXxXxXxXxXxXxXxXxXxXxXxXxXxXxXxX"
};
